/* XPM */
static char *e6b7607fc1cd4b2485b18411b4b80e6cFFhUsi0wWI3ZN2in[] = {
/* columns rows colors chars-per-pixel */
"120 120 17 1 ",
"  c #030826",
". c #040C37",
"X c #050F46",
"o c #422445",
"O c #5A265E",
"+ c #73275C",
"@ c #B21849",
"# c #B0305C",
"$ c #80366B",
"% c #EB564B",
"& c #1B1094",
"* c #7E1285",
"= c #FF1A8C",
"- c #BD4882",
"; c #FC7FA7",
": c #FFB5B5",
"> c white",
/* pixels */
"                                                                                                                        ",
"                                                                                                                        ",
"                                                                                                                        ",
"                                                                                                                        ",
"            ..                                                                                                          ",
"            ..                                                                                                          ",
"          ..XX..                                                                                                        ",
"          ..XX..                                                                                                        ",
"        ..XX>>XX..                                                                                                      ",
"        ..XX>>XX..                                                                                                      ",
"          ..XX..                                                                                      ..                ",
"          ..XX..                                                                                      ..                ",
"            ..                                                                                      ..XX..              ",
"            ..                                                                                      ..XX..              ",
"                                                                                                  ..XX>>XX..            ",
"                                                                                                  ..XX>>XX..            ",
"                                                ::::::::;;;;;;;;--------::::::::                    ..XX..              ",
"                                                ::::::::;;;;;;;;--------::::::::                    ..XX..              ",
"                                                ::::::::;;;;;;;;--------::::::::                      ..                ",
"                                                ::::::::;;;;;;;;--------::::::::                      ..                ",
"                                                ::::::::;;;;;;;;--------::::::::                                        ",
"                                                ::::::::;;;;;;;;--------::::::::                                        ",
"                                                ::::::::;;;;;;;;--------::::::::                                        ",
"                                                ::::::::;;;;;;;;--------::::::::                                        ",
"                                ::::::::::::::::%%%%%%%%--------========%%%%%%%%::::::::                                ",
"                                ::::::::::::::::%%%%%%%%--------========%%%%%%%%::::::::                                ",
"                                ::::::::::::::::%%%%%%%%--------========%%%%%%%%::::::::                                ",
"                                ::::::::::::::::%%%%%%%%--------========%%%%%%%%::::::::                                ",
"                                ::::::::::::::::%%%%%%%%--------========%%%%%%%%::::::::                                ",
"                                ::::::::::::::::%%%%%%%%--------========%%%%%%%%::::::::                                ",
"                                ::::::::::::::::%%%%%%%%--------========%%%%%%%%::::::::                                ",
"                                ::::::::::::::::%%%%%%%%--------========%%%%%%%%::::::::                                ",
"                        ::::::::--------========--------%%%%%%%%########========%%%%%%%%;;;;;;;;                        ",
"                        ::::::::--------========--------%%%%%%%%########========%%%%%%%%;;;;;;;;                        ",
"                        ::::::::--------========--------%%%%%%%%########========%%%%%%%%;;;;;;;;                        ",
"                        ::::::::--------========--------%%%%%%%%########========%%%%%%%%;;;;;;;;                        ",
"    ..                  ::::::::--------========--------%%%%%%%%########========%%%%%%%%;;;;;;;;                        ",
"    ..                  ::::::::--------========--------%%%%%%%%########========%%%%%%%%;;;;;;;;                        ",
"  ..XX..                ::::::::--------========--------%%%%%%%%########========%%%%%%%%;;;;;;;;                        ",
"  ..XX..                ::::::::--------========--------%%%%%%%%########========%%%%%%%%;;;;;;;;                        ",
"..XX>>XX..      ::::::::;;;;;;;;########========@@@@@@@@----------------@@@@@@@@################********                ",
"..XX>>XX..      ::::::::;;;;;;;;########========@@@@@@@@----------------@@@@@@@@################********                ",
"  ..XX..        ::::::::;;;;;;;;########========@@@@@@@@----------------@@@@@@@@################********                ",
"  ..XX..        ::::::::;;;;;;;;########========@@@@@@@@----------------@@@@@@@@################********                ",
"    ..          ::::::::;;;;;;;;########========@@@@@@@@----------------@@@@@@@@################********                ",
"    ..          ::::::::;;;;;;;;########========@@@@@@@@----------------@@@@@@@@################********                ",
"                ::::::::;;;;;;;;########========@@@@@@@@----------------@@@@@@@@################********                ",
"                ::::::::;;;;;;;;########========@@@@@@@@----------------@@@@@@@@################********                ",
"                ::::::::--------%%%%%%%%--------@@@@@@@@########################oooooooo********oooooooo                ",
"                ::::::::--------%%%%%%%%--------@@@@@@@@########################oooooooo********oooooooo                ",
"                ::::::::--------%%%%%%%%--------@@@@@@@@########################oooooooo********oooooooo                ",
"                ::::::::--------%%%%%%%%--------@@@@@@@@########################oooooooo********oooooooo                ",
"                ::::::::--------%%%%%%%%--------@@@@@@@@########################oooooooo********oooooooo                ",
"                ::::::::--------%%%%%%%%--------@@@@@@@@########################oooooooo********oooooooo                ",
"                ::::::::--------%%%%%%%%--------@@@@@@@@########################oooooooo********oooooooo                ",
"                ::::::::--------%%%%%%%%--------@@@@@@@@########################oooooooo********oooooooo                ",
"                %%%%%%%%;;;;;;;;@@@@@@@@################--------########++++++++****************&&&&&&&&                ",
"                %%%%%%%%;;;;;;;;@@@@@@@@################--------########++++++++****************&&&&&&&&                ",
"                %%%%%%%%;;;;;;;;@@@@@@@@################--------########++++++++****************&&&&&&&&                ",
"                %%%%%%%%;;;;;;;;@@@@@@@@################--------########++++++++****************&&&&&&&&                ",
"                %%%%%%%%;;;;;;;;@@@@@@@@################--------########++++++++****************&&&&&&&&                ",
"                %%%%%%%%;;;;;;;;@@@@@@@@################--------########++++++++****************&&&&&&&&                ",
"                %%%%%%%%;;;;;;;;@@@@@@@@################--------########++++++++****************&&&&&&&&                ",
"                %%%%%%%%;;;;;;;;@@@@@@@@################--------########++++++++****************&&&&&&&&                ",
"                ::::::::################--------################++++++++++++++++&&&&&&&&oooooooo&&&&&&&&                ",
"                ::::::::################--------################++++++++++++++++&&&&&&&&oooooooo&&&&&&&&                ",
"                ::::::::################--------################++++++++++++++++&&&&&&&&oooooooo&&&&&&&&                ",
"                ::::::::################--------################++++++++++++++++&&&&&&&&oooooooo&&&&&&&&                ",
"                ::::::::################--------################++++++++++++++++&&&&&&&&oooooooo&&&&&&&&                ",
"                ::::::::################--------################++++++++++++++++&&&&&&&&oooooooo&&&&&&&&                ",
"                ::::::::################--------################++++++++++++++++&&&&&&&&oooooooo&&&&&&&&                ",
"                ::::::::################--------################++++++++++++++++&&&&&&&&oooooooo&&&&&&&&                ",
"                ::::::::$$$$$$$$################++++++++++++++++++++++++++++++++&&&&&&&&oooooooo&&&&&&&&                ",
"                ::::::::$$$$$$$$################++++++++++++++++++++++++++++++++&&&&&&&&oooooooo&&&&&&&&                ",
"                ::::::::$$$$$$$$################++++++++++++++++++++++++++++++++&&&&&&&&oooooooo&&&&&&&&                ",
"                ::::::::$$$$$$$$################++++++++++++++++++++++++++++++++&&&&&&&&oooooooo&&&&&&&&                ",
"                ::::::::$$$$$$$$################++++++++++++++++++++++++++++++++&&&&&&&&oooooooo&&&&&&&&                ",
"                ::::::::$$$$$$$$################++++++++++++++++++++++++++++++++&&&&&&&&oooooooo&&&&&&&&                ",
"                ::::::::$$$$$$$$################++++++++++++++++++++++++++++++++&&&&&&&&oooooooo&&&&&&&&                ",
"                ::::::::$$$$$$$$################++++++++++++++++++++++++++++++++&&&&&&&&oooooooo&&&&&&&&                ",
"                        ++++++++########++++++++++++++++************************oooooooo&&&&&&&&                        ",
"                        ++++++++########++++++++++++++++************************oooooooo&&&&&&&&                        ",
"                        ++++++++########++++++++++++++++************************oooooooo&&&&&&&&                  ..    ",
"                        ++++++++########++++++++++++++++************************oooooooo&&&&&&&&                  ..    ",
"                        ++++++++########++++++++++++++++************************oooooooo&&&&&&&&                ..XX..  ",
"                        ++++++++########++++++++++++++++************************oooooooo&&&&&&&&                ..XX..  ",
"                        ++++++++########++++++++++++++++************************oooooooo&&&&&&&&              ..XX>>XX..",
"                        ++++++++########++++++++++++++++************************oooooooo&&&&&&&&              ..XX>>XX..",
"                                OOOOOOOO$$$$$$$$OOOOOOOO$$$$$$$$********&&&&&&&&&&&&&&&&                        ..XX..  ",
"                                OOOOOOOO$$$$$$$$OOOOOOOO$$$$$$$$********&&&&&&&&&&&&&&&&                        ..XX..  ",
"                                OOOOOOOO$$$$$$$$OOOOOOOO$$$$$$$$********&&&&&&&&&&&&&&&&                          ..    ",
"                                OOOOOOOO$$$$$$$$OOOOOOOO$$$$$$$$********&&&&&&&&&&&&&&&&                          ..    ",
"                                OOOOOOOO$$$$$$$$OOOOOOOO$$$$$$$$********&&&&&&&&&&&&&&&&                                ",
"                                OOOOOOOO$$$$$$$$OOOOOOOO$$$$$$$$********&&&&&&&&&&&&&&&&                                ",
"                                OOOOOOOO$$$$$$$$OOOOOOOO$$$$$$$$********&&&&&&&&&&&&&&&&                                ",
"                                OOOOOOOO$$$$$$$$OOOOOOOO$$$$$$$$********&&&&&&&&&&&&&&&&                                ",
"                                ********&&&&&&&&****************&&&&&&&&&&&&&&&&                                        ",
"                                ********&&&&&&&&****************&&&&&&&&&&&&&&&&                                        ",
"                                ********&&&&&&&&****************&&&&&&&&&&&&&&&&                                        ",
"                                ********&&&&&&&&****************&&&&&&&&&&&&&&&&                                        ",
"                                ********&&&&&&&&****************&&&&&&&&&&&&&&&&                                        ",
"                                ********&&&&&&&&****************&&&&&&&&&&&&&&&&                                        ",
"      ..                        ********&&&&&&&&****************&&&&&&&&&&&&&&&&                                        ",
"      ..                        ********&&&&&&&&****************&&&&&&&&&&&&&&&&                                        ",
"    ..XX..                                                                                                              ",
"    ..XX..                                                                                                              ",
"  ..XX>>XX..                                                ..                                                          ",
"  ..XX>>XX..                                                ..                                                          ",
"    ..XX..                                                ..XX..                                                        ",
"    ..XX..                                                ..XX..                                                        ",
"      ..                                                ..XX>>XX..                                                      ",
"      ..                                                ..XX>>XX..                                                      ",
"                                                          ..XX..                                                        ",
"                                                          ..XX..                                                        ",
"                                                            ..                                                          ",
"                                                            ..                                                          ",
"                                                                                                                        ",
"                                                                                                                        ",
"                                                                                                                        ",
"                                                                                                                        "
};
