/* XPM */
static char *_1f8f29fd3ef411abd4e000709b45c050CYyfPiVpZsepnFi[] = {
/* columns rows colors chars-per-pixel */
"120 120 9 1 ",
"  c #030826",
". c #040C37",
"X c #640725",
"o c #050F46",
"O c #EB2550",
"+ c #FFCA2C",
"@ c #F9D04A",
"# c #FF92AD",
"$ c white",
/* pixels */
"                                                                                                                        ",
"                                                                                                                        ",
"                  ..                                                                                                    ",
"                  ..                                                                                                    ",
"                ..oo..                                                                                                  ",
"                ..oo..                                                                                                  ",
"              ..oo$$oo..                                                                                                ",
"              ..oo$$oo..                                                                                                ",
"                ..oo..                                                                                                  ",
"                ..oo..                                                                                                  ",
"                  ..                                                                                                    ",
"                  ..                                                                                                    ",
"                                                                                                                        ",
"                                                                                                                        ",
"                                                                                                                        ",
"                                                                                                                        ",
"                        OOOOOOOOOOOOOOOOOOOOOOOOOOOOOOOOOOOOOOOOOOOOOOOOOOOOOOOOOOOOOOOOOOOOOOOO                        ",
"                        OOOOOOOOOOOOOOOOOOOOOOOOOOOOOOOOOOOOOOOOOOOOOOOOOOOOOOOOOOOOOOOOOOOOOOOO                        ",
"                        OOOOOOOOOOOOOOOOOOOOOOOOOOOOOOOOOOOOOOOOOOOOOOOOOOOOOOOOOOOOOOOOOOOOOOOO                        ",
"                        OOOOOOOOOOOOOOOOOOOOOOOOOOOOOOOOOOOOOOOOOOOOOOOOOOOOOOOOOOOOOOOOOOOOOOOO                        ",
"                        OOOOOOOOOOOOOOOOOOOOOOOOOOOOOOOOOOOOOOOOOOOOOOOOOOOOOOOOOOOOOOOOOOOOOOOO                        ",
"                        OOOOOOOOOOOOOOOOOOOOOOOOOOOOOOOOOOOOOOOOOOOOOOOOOOOOOOOOOOOOOOOOOOOOOOOO                        ",
"                        OOOOOOOOOOOOOOOOOOOOOOOOOOOOOOOOOOOOOOOOOOOOOOOOOOOOOOOOOOOOOOOOOOOOOOOO        ..              ",
"                        OOOOOOOOOOOOOOOOOOOOOOOOOOOOOOOOOOOOOOOOOOOOOOOOOOOOOOOOOOOOOOOOOOOOOOOO        ..              ",
"                        OOOOOOOOOOOOOOOOXXXXXXXXOOOOOOOOOOOOOOOOOOOOOOOOXXXXXXXXOOOOOOOOOOOOOOOO      ..oo..            ",
"                        OOOOOOOOOOOOOOOOXXXXXXXXOOOOOOOOOOOOOOOOOOOOOOOOXXXXXXXXOOOOOOOOOOOOOOOO      ..oo..            ",
"                        OOOOOOOOOOOOOOOOXXXXXXXXOOOOOOOOOOOOOOOOOOOOOOOOXXXXXXXXOOOOOOOOOOOOOOOO    ..oo$$oo..          ",
"                        OOOOOOOOOOOOOOOOXXXXXXXXOOOOOOOOOOOOOOOOOOOOOOOOXXXXXXXXOOOOOOOOOOOOOOOO    ..oo$$oo..          ",
"                        OOOOOOOOOOOOOOOOXXXXXXXXOOOOOOOOOOOOOOOOOOOOOOOOXXXXXXXXOOOOOOOOOOOOOOOO      ..oo..            ",
"                        OOOOOOOOOOOOOOOOXXXXXXXXOOOOOOOOOOOOOOOOOOOOOOOOXXXXXXXXOOOOOOOOOOOOOOOO      ..oo..            ",
"                        OOOOOOOOOOOOOOOOXXXXXXXXOOOOOOOOOOOOOOOOOOOOOOOOXXXXXXXXOOOOOOOOOOOOOOOO        ..              ",
"                        OOOOOOOOOOOOOOOOXXXXXXXXOOOOOOOOOOOOOOOOOOOOOOOOXXXXXXXXOOOOOOOOOOOOOOOO        ..              ",
"                        OOOOOOOOOOOOOOOO$$$$$$$$XXXXXXXXOOOOOOOOXXXXXXXX$$$$$$$$OOOOOOOOOOOOOOOO                        ",
"                        OOOOOOOOOOOOOOOO$$$$$$$$XXXXXXXXOOOOOOOOXXXXXXXX$$$$$$$$OOOOOOOOOOOOOOOO                        ",
"                        OOOOOOOOOOOOOOOO$$$$$$$$XXXXXXXXOOOOOOOOXXXXXXXX$$$$$$$$OOOOOOOOOOOOOOOO                        ",
"                        OOOOOOOOOOOOOOOO$$$$$$$$XXXXXXXXOOOOOOOOXXXXXXXX$$$$$$$$OOOOOOOOOOOOOOOO                        ",
"                        OOOOOOOOOOOOOOOO$$$$$$$$XXXXXXXXOOOOOOOOXXXXXXXX$$$$$$$$OOOOOOOOOOOOOOOO                        ",
"                        OOOOOOOOOOOOOOOO$$$$$$$$XXXXXXXXOOOOOOOOXXXXXXXX$$$$$$$$OOOOOOOOOOOOOOOO                        ",
"                        OOOOOOOOOOOOOOOO$$$$$$$$XXXXXXXXOOOOOOOOXXXXXXXX$$$$$$$$OOOOOOOOOOOOOOOO                        ",
"                        OOOOOOOOOOOOOOOO$$$$$$$$XXXXXXXXOOOOOOOOXXXXXXXX$$$$$$$$OOOOOOOOOOOOOOOO                        ",
"                        OOOOOOOOOOOOOOOOOOOOOOOOOOOOOOOOOOOOOOOOOOOOOOOOOOOOOOOOOOOOOOOOOOOOOOOO                        ",
"                        OOOOOOOOOOOOOOOOOOOOOOOOOOOOOOOOOOOOOOOOOOOOOOOOOOOOOOOOOOOOOOOOOOOOOOOO                        ",
"                        OOOOOOOOOOOOOOOOOOOOOOOOOOOOOOOOOOOOOOOOOOOOOOOOOOOOOOOOOOOOOOOOOOOOOOOO                        ",
"                        OOOOOOOOOOOOOOOOOOOOOOOOOOOOOOOOOOOOOOOOOOOOOOOOOOOOOOOOOOOOOOOOOOOOOOOO                        ",
"                        OOOOOOOOOOOOOOOOOOOOOOOOOOOOOOOOOOOOOOOOOOOOOOOOOOOOOOOOOOOOOOOOOOOOOOOO                        ",
"                        OOOOOOOOOOOOOOOOOOOOOOOOOOOOOOOOOOOOOOOOOOOOOOOOOOOOOOOOOOOOOOOOOOOOOOOO                        ",
"                        OOOOOOOOOOOOOOOOOOOOOOOOOOOOOOOOOOOOOOOOOOOOOOOOOOOOOOOOOOOOOOOOOOOOOOOO                        ",
"                        OOOOOOOOOOOOOOOOOOOOOOOOOOOOOOOOOOOOOOOOOOOOOOOOOOOOOOOOOOOOOOOOOOOOOOOO                        ",
"                        OOOOOOOOOOOOOOOOOOOOOOOOOOOOOOOOOOOOOOOOOOOOOOOOOOOOOOOOOOOOOOOOOOOOOOOO                        ",
"                        OOOOOOOOOOOOOOOOOOOOOOOOOOOOOOOOOOOOOOOOOOOOOOOOOOOOOOOOOOOOOOOOOOOOOOOO                        ",
"                        OOOOOOOOOOOOOOOOOOOOOOOOOOOOOOOOOOOOOOOOOOOOOOOOOOOOOOOOOOOOOOOOOOOOOOOO                        ",
"                        OOOOOOOOOOOOOOOOOOOOOOOOOOOOOOOOOOOOOOOOOOOOOOOOOOOOOOOOOOOOOOOOOOOOOOOO                        ",
"                        OOOOOOOOOOOOOOOOOOOOOOOOOOOOOOOOOOOOOOOOOOOOOOOOOOOOOOOOOOOOOOOOOOOOOOOO                        ",
"                        OOOOOOOOOOOOOOOOOOOOOOOOOOOOOOOOOOOOOOOOOOOOOOOOOOOOOOOOOOOOOOOOOOOOOOOO                        ",
"                        OOOOOOOOOOOOOOOOOOOOOOOOOOOOOOOOOOOOOOOOOOOOOOOOOOOOOOOOOOOOOOOOOOOOOOOO                        ",
"                        OOOOOOOOOOOOOOOOOOOOOOOOOOOOOOOOOOOOOOOOOOOOOOOOOOOOOOOOOOOOOOOOOOOOOOOO                        ",
"                        OOOOOOOO########################################################OOOOOOOO                        ",
"                        OOOOOOOO########################################################OOOOOOOO                        ",
"                        OOOOOOOO########################################################OOOOOOOO                        ",
"                        OOOOOOOO########################################################OOOOOOOO                        ",
"                        OOOOOOOO########################################################OOOOOOOO                        ",
"                        OOOOOOOO########################################################OOOOOOOO                        ",
"                        OOOOOOOO########################################################OOOOOOOO                        ",
"                        OOOOOOOO########################################################OOOOOOOO                        ",
"                        OOOOOOOO########++++++++@@@@@@@@++++++++@@@@@@@@++++++++########OOOOOOOO                        ",
"                        OOOOOOOO########++++++++@@@@@@@@++++++++@@@@@@@@++++++++########OOOOOOOO                        ",
"                        OOOOOOOO########++++++++@@@@@@@@++++++++@@@@@@@@++++++++########OOOOOOOO                        ",
"                        OOOOOOOO########++++++++@@@@@@@@++++++++@@@@@@@@++++++++########OOOOOOOO                        ",
"                        OOOOOOOO########++++++++@@@@@@@@++++++++@@@@@@@@++++++++########OOOOOOOO                        ",
"                        OOOOOOOO########++++++++@@@@@@@@++++++++@@@@@@@@++++++++########OOOOOOOO                        ",
"                        OOOOOOOO########++++++++@@@@@@@@++++++++@@@@@@@@++++++++########OOOOOOOO                        ",
"                        OOOOOOOO########++++++++@@@@@@@@++++++++@@@@@@@@++++++++########OOOOOOOO                        ",
"          ..            OOOOOOOO########++++++++@@@@@@@@++++++++@@@@@@@@++++++++########OOOOOOOO                        ",
"          ..            OOOOOOOO########++++++++@@@@@@@@++++++++@@@@@@@@++++++++########OOOOOOOO                        ",
"        ..oo..          OOOOOOOO########++++++++@@@@@@@@++++++++@@@@@@@@++++++++########OOOOOOOO                        ",
"        ..oo..          OOOOOOOO########++++++++@@@@@@@@++++++++@@@@@@@@++++++++########OOOOOOOO                        ",
"      ..oo$$oo..        OOOOOOOO########++++++++@@@@@@@@++++++++@@@@@@@@++++++++########OOOOOOOO                        ",
"      ..oo$$oo..        OOOOOOOO########++++++++@@@@@@@@++++++++@@@@@@@@++++++++########OOOOOOOO                        ",
"        ..oo..          OOOOOOOO########++++++++@@@@@@@@++++++++@@@@@@@@++++++++########OOOOOOOO                        ",
"        ..oo..          OOOOOOOO########++++++++@@@@@@@@++++++++@@@@@@@@++++++++########OOOOOOOO                        ",
"          ..            OOOOOOOO########################################################OOOOOOOO                        ",
"          ..            OOOOOOOO########################################################OOOOOOOO                        ",
"                        OOOOOOOO########################################################OOOOOOOO                        ",
"                        OOOOOOOO########################################################OOOOOOOO                        ",
"                        OOOOOOOO########################################################OOOOOOOO                        ",
"                        OOOOOOOO########################################################OOOOOOOO                        ",
"                        OOOOOOOO########################################################OOOOOOOO                        ",
"                        OOOOOOOO########################################################OOOOOOOO                        ",
"                        OOOOOOOOOOOOOOOOOOOOOOOOOOOOOOOOOOOOOOOOOOOOOOOOOOOOOOOOOOOOOOOOOOOOOOOO                        ",
"                        OOOOOOOOOOOOOOOOOOOOOOOOOOOOOOOOOOOOOOOOOOOOOOOOOOOOOOOOOOOOOOOOOOOOOOOO                        ",
"                        OOOOOOOOOOOOOOOOOOOOOOOOOOOOOOOOOOOOOOOOOOOOOOOOOOOOOOOOOOOOOOOOOOOOOOOO                        ",
"                        OOOOOOOOOOOOOOOOOOOOOOOOOOOOOOOOOOOOOOOOOOOOOOOOOOOOOOOOOOOOOOOOOOOOOOOO                        ",
"                        OOOOOOOOOOOOOOOOOOOOOOOOOOOOOOOOOOOOOOOOOOOOOOOOOOOOOOOOOOOOOOOOOOOOOOOO                        ",
"                        OOOOOOOOOOOOOOOOOOOOOOOOOOOOOOOOOOOOOOOOOOOOOOOOOOOOOOOOOOOOOOOOOOOOOOOO                        ",
"                        OOOOOOOOOOOOOOOOOOOOOOOOOOOOOOOOOOOOOOOOOOOOOOOOOOOOOOOOOOOOOOOOOOOOOOOO                        ",
"                        OOOOOOOOOOOOOOOOOOOOOOOOOOOOOOOOOOOOOOOOOOOOOOOOOOOOOOOOOOOOOOOOOOOOOOOO                        ",
"                        OOOOOOOO        OOOOOOOO        OOOOOOOO        OOOOOOOO        OOOOOOOO                        ",
"                        OOOOOOOO        OOOOOOOO        OOOOOOOO        OOOOOOOO        OOOOOOOO                        ",
"                        OOOOOOOO        OOOOOOOO        OOOOOOOO        OOOOOOOO        OOOOOOOO                        ",
"                        OOOOOOOO        OOOOOOOO        OOOOOOOO        OOOOOOOO        OOOOOOOO                        ",
"                        OOOOOOOO        OOOOOOOO        OOOOOOOO        OOOOOOOO        OOOOOOOO                        ",
"                        OOOOOOOO        OOOOOOOO        OOOOOOOO        OOOOOOOO        OOOOOOOO                        ",
"                        OOOOOOOO        OOOOOOOO        OOOOOOOO        OOOOOOOO        OOOOOOOO                        ",
"                        OOOOOOOO        OOOOOOOO        OOOOOOOO        OOOOOOOO        OOOOOOOO                        ",
"                                                                                                                        ",
"                                                                                                                        ",
"                                                                                                          ..            ",
"                                                                                                          ..            ",
"                                                                                                        ..oo..          ",
"                                                                                                        ..oo..          ",
"                                                                                                      ..oo$$oo..        ",
"                                                                                                      ..oo$$oo..        ",
"                                                                                                        ..oo..          ",
"                                                                                                        ..oo..          ",
"                                                                                                          ..            ",
"                                                                                                          ..            ",
"                                                                                                                        ",
"                                                                                                                        ",
"                                                                                                                        ",
"                                                                                                                        "
};
