/* XPM */
static char *b603348c25d54926a0ad881a2611ddd1jJpomKtgn74XdNxM[] = {
/* columns rows colors chars-per-pixel */
"120 120 9 1 ",
"  c #030826",
". c #040C37",
"X c #640725",
"o c #050F46",
"O c #EB2550",
"+ c #FFCA2C",
"@ c #F9D04A",
"# c #FF92AD",
"$ c white",
/* pixels */
"                                                                                                                        ",
"                                                                                                                        ",
"                ..                                                                                                      ",
"                ..                                                                                                      ",
"              ..oo..                                                                                                    ",
"              ..oo..                                                                                                    ",
"            ..oo$$oo..                                                                                                  ",
"            ..oo$$oo..                                                                                                  ",
"              ..oo..                                                                                                    ",
"              ..oo..                                                                                                    ",
"                ..                                                                                                      ",
"                ..                                                                                                      ",
"                                                                                                                        ",
"                                                                                                                        ",
"                                                                                                                        ",
"                                                                                                                        ",
"                        OOOOOOOOOOOOOOOOOOOOOOOOOOOOOOOOOOOOOOOOOOOOOOOOOOOOOOOOOOOOOOOOOOOOOOOO                        ",
"                        OOOOOOOOOOOOOOOOOOOOOOOOOOOOOOOOOOOOOOOOOOOOOOOOOOOOOOOOOOOOOOOOOOOOOOOO                        ",
"                        OOOOOOOOOOOOOOOOOOOOOOOOOOOOOOOOOOOOOOOOOOOOOOOOOOOOOOOOOOOOOOOOOOOOOOOO                        ",
"                        OOOOOOOOOOOOOOOOOOOOOOOOOOOOOOOOOOOOOOOOOOOOOOOOOOOOOOOOOOOOOOOOOOOOOOOO                        ",
"                        OOOOOOOOOOOOOOOOOOOOOOOOOOOOOOOOOOOOOOOOOOOOOOOOOOOOOOOOOOOOOOOOOOOOOOOO                        ",
"                        OOOOOOOOOOOOOOOOOOOOOOOOOOOOOOOOOOOOOOOOOOOOOOOOOOOOOOOOOOOOOOOOOOOOOOOO                        ",
"                        OOOOOOOOOOOOOOOOOOOOOOOOOOOOOOOOOOOOOOOOOOOOOOOOOOOOOOOOOOOOOOOOOOOOOOOO          ..            ",
"                        OOOOOOOOOOOOOOOOOOOOOOOOOOOOOOOOOOOOOOOOOOOOOOOOOOOOOOOOOOOOOOOOOOOOOOOO          ..            ",
"                        OOOOOOOOOOOOOOOOXXXXXXXXXXXXXXXXOOOOOOOOXXXXXXXXXXXXXXXXOOOOOOOOOOOOOOOO        ..oo..          ",
"                        OOOOOOOOOOOOOOOOXXXXXXXXXXXXXXXXOOOOOOOOXXXXXXXXXXXXXXXXOOOOOOOOOOOOOOOO        ..oo..          ",
"                        OOOOOOOOOOOOOOOOXXXXXXXXXXXXXXXXOOOOOOOOXXXXXXXXXXXXXXXXOOOOOOOOOOOOOOOO      ..oo$$oo..        ",
"                        OOOOOOOOOOOOOOOOXXXXXXXXXXXXXXXXOOOOOOOOXXXXXXXXXXXXXXXXOOOOOOOOOOOOOOOO      ..oo$$oo..        ",
"                        OOOOOOOOOOOOOOOOXXXXXXXXXXXXXXXXOOOOOOOOXXXXXXXXXXXXXXXXOOOOOOOOOOOOOOOO        ..oo..          ",
"                        OOOOOOOOOOOOOOOOXXXXXXXXXXXXXXXXOOOOOOOOXXXXXXXXXXXXXXXXOOOOOOOOOOOOOOOO        ..oo..          ",
"                        OOOOOOOOOOOOOOOOXXXXXXXXXXXXXXXXOOOOOOOOXXXXXXXXXXXXXXXXOOOOOOOOOOOOOOOO          ..            ",
"                        OOOOOOOOOOOOOOOOXXXXXXXXXXXXXXXXOOOOOOOOXXXXXXXXXXXXXXXXOOOOOOOOOOOOOOOO          ..            ",
"                        OOOOOOOOOOOOOOOO$$$$$$$$OOOOOOOOOOOOOOOOOOOOOOOO$$$$$$$$OOOOOOOOOOOOOOOO                        ",
"                        OOOOOOOOOOOOOOOO$$$$$$$$OOOOOOOOOOOOOOOOOOOOOOOO$$$$$$$$OOOOOOOOOOOOOOOO                        ",
"                        OOOOOOOOOOOOOOOO$$$$$$$$OOOOOOOOOOOOOOOOOOOOOOOO$$$$$$$$OOOOOOOOOOOOOOOO                        ",
"                        OOOOOOOOOOOOOOOO$$$$$$$$OOOOOOOOOOOOOOOOOOOOOOOO$$$$$$$$OOOOOOOOOOOOOOOO                        ",
"                        OOOOOOOOOOOOOOOO$$$$$$$$OOOOOOOOOOOOOOOOOOOOOOOO$$$$$$$$OOOOOOOOOOOOOOOO                        ",
"                        OOOOOOOOOOOOOOOO$$$$$$$$OOOOOOOOOOOOOOOOOOOOOOOO$$$$$$$$OOOOOOOOOOOOOOOO                        ",
"                        OOOOOOOOOOOOOOOO$$$$$$$$OOOOOOOOOOOOOOOOOOOOOOOO$$$$$$$$OOOOOOOOOOOOOOOO                        ",
"                        OOOOOOOOOOOOOOOO$$$$$$$$OOOOOOOOOOOOOOOOOOOOOOOO$$$$$$$$OOOOOOOOOOOOOOOO                        ",
"                        OOOOOOOOOOOOOOOOOOOOOOOOOOOOOOOOOOOOOOOOOOOOOOOOOOOOOOOOOOOOOOOOOOOOOOOO                        ",
"                        OOOOOOOOOOOOOOOOOOOOOOOOOOOOOOOOOOOOOOOOOOOOOOOOOOOOOOOOOOOOOOOOOOOOOOOO                        ",
"                        OOOOOOOOOOOOOOOOOOOOOOOOOOOOOOOOOOOOOOOOOOOOOOOOOOOOOOOOOOOOOOOOOOOOOOOO                        ",
"                        OOOOOOOOOOOOOOOOOOOOOOOOOOOOOOOOOOOOOOOOOOOOOOOOOOOOOOOOOOOOOOOOOOOOOOOO                        ",
"                        OOOOOOOOOOOOOOOOOOOOOOOOOOOOOOOOOOOOOOOOOOOOOOOOOOOOOOOOOOOOOOOOOOOOOOOO                        ",
"                        OOOOOOOOOOOOOOOOOOOOOOOOOOOOOOOOOOOOOOOOOOOOOOOOOOOOOOOOOOOOOOOOOOOOOOOO                        ",
"                        OOOOOOOOOOOOOOOOOOOOOOOOOOOOOOOOOOOOOOOOOOOOOOOOOOOOOOOOOOOOOOOOOOOOOOOO                        ",
"                        OOOOOOOOOOOOOOOOOOOOOOOOOOOOOOOOOOOOOOOOOOOOOOOOOOOOOOOOOOOOOOOOOOOOOOOO                        ",
"                        OOOOOOOO########################################################OOOOOOOO                        ",
"                        OOOOOOOO########################################################OOOOOOOO                        ",
"                        OOOOOOOO########################################################OOOOOOOO                        ",
"                        OOOOOOOO########################################################OOOOOOOO                        ",
"                        OOOOOOOO########################################################OOOOOOOO                        ",
"                        OOOOOOOO########################################################OOOOOOOO                        ",
"                        OOOOOOOO########################################################OOOOOOOO                        ",
"                        OOOOOOOO########################################################OOOOOOOO                        ",
"                        OOOOOOOO########++++++++XXXXXXXX++++++++XXXXXXXX++++++++########OOOOOOOO                        ",
"                        OOOOOOOO########++++++++XXXXXXXX++++++++XXXXXXXX++++++++########OOOOOOOO                        ",
"                        OOOOOOOO########++++++++XXXXXXXX++++++++XXXXXXXX++++++++########OOOOOOOO                        ",
"                        OOOOOOOO########++++++++XXXXXXXX++++++++XXXXXXXX++++++++########OOOOOOOO                        ",
"                        OOOOOOOO########++++++++XXXXXXXX++++++++XXXXXXXX++++++++########OOOOOOOO                        ",
"                        OOOOOOOO########++++++++XXXXXXXX++++++++XXXXXXXX++++++++########OOOOOOOO                        ",
"                        OOOOOOOO########++++++++XXXXXXXX++++++++XXXXXXXX++++++++########OOOOOOOO                        ",
"                        OOOOOOOO########++++++++XXXXXXXX++++++++XXXXXXXX++++++++########OOOOOOOO                        ",
"                        OOOOOOOO########XXXXXXXXXXXXXXXXXXXXXXXXXXXXXXXXXXXXXXXX########OOOOOOOO                        ",
"                        OOOOOOOO########XXXXXXXXXXXXXXXXXXXXXXXXXXXXXXXXXXXXXXXX########OOOOOOOO                        ",
"                        OOOOOOOO########XXXXXXXXXXXXXXXXXXXXXXXXXXXXXXXXXXXXXXXX########OOOOOOOO                        ",
"                        OOOOOOOO########XXXXXXXXXXXXXXXXXXXXXXXXXXXXXXXXXXXXXXXX########OOOOOOOO                        ",
"                        OOOOOOOO########XXXXXXXXXXXXXXXXXXXXXXXXXXXXXXXXXXXXXXXX########OOOOOOOO                        ",
"                        OOOOOOOO########XXXXXXXXXXXXXXXXXXXXXXXXXXXXXXXXXXXXXXXX########OOOOOOOO                        ",
"                        OOOOOOOO########XXXXXXXXXXXXXXXXXXXXXXXXXXXXXXXXXXXXXXXX########OOOOOOOO                        ",
"                        OOOOOOOO########XXXXXXXXXXXXXXXXXXXXXXXXXXXXXXXXXXXXXXXX########OOOOOOOO                        ",
"                        OOOOOOOO########XXXXXXXX@@@@@@@@XXXXXXXX@@@@@@@@XXXXXXXX########OOOOOOOO                        ",
"                        OOOOOOOO########XXXXXXXX@@@@@@@@XXXXXXXX@@@@@@@@XXXXXXXX########OOOOOOOO                        ",
"          ..            OOOOOOOO########XXXXXXXX@@@@@@@@XXXXXXXX@@@@@@@@XXXXXXXX########OOOOOOOO                        ",
"          ..            OOOOOOOO########XXXXXXXX@@@@@@@@XXXXXXXX@@@@@@@@XXXXXXXX########OOOOOOOO                        ",
"        ..oo..          OOOOOOOO########XXXXXXXX@@@@@@@@XXXXXXXX@@@@@@@@XXXXXXXX########OOOOOOOO                        ",
"        ..oo..          OOOOOOOO########XXXXXXXX@@@@@@@@XXXXXXXX@@@@@@@@XXXXXXXX########OOOOOOOO                        ",
"      ..oo$$oo..        OOOOOOOO########XXXXXXXX@@@@@@@@XXXXXXXX@@@@@@@@XXXXXXXX########OOOOOOOO                        ",
"      ..oo$$oo..        OOOOOOOO########XXXXXXXX@@@@@@@@XXXXXXXX@@@@@@@@XXXXXXXX########OOOOOOOO                        ",
"        ..oo..          OOOOOOOO########################################################OOOOOOOO                        ",
"        ..oo..          OOOOOOOO########################################################OOOOOOOO                        ",
"          ..            OOOOOOOO########################################################OOOOOOOO                        ",
"          ..            OOOOOOOO########################################################OOOOOOOO                        ",
"                        OOOOOOOO########################################################OOOOOOOO                        ",
"                        OOOOOOOO########################################################OOOOOOOO                        ",
"                        OOOOOOOO########################################################OOOOOOOO                        ",
"                        OOOOOOOO########################################################OOOOOOOO                        ",
"                        OOOOOOOOOOOOOOOOOOOOOOOOOOOOOOOOOOOOOOOOOOOOOOOOOOOOOOOOOOOOOOOOOOOOOOOO                        ",
"                        OOOOOOOOOOOOOOOOOOOOOOOOOOOOOOOOOOOOOOOOOOOOOOOOOOOOOOOOOOOOOOOOOOOOOOOO                        ",
"                        OOOOOOOOOOOOOOOOOOOOOOOOOOOOOOOOOOOOOOOOOOOOOOOOOOOOOOOOOOOOOOOOOOOOOOOO                        ",
"                        OOOOOOOOOOOOOOOOOOOOOOOOOOOOOOOOOOOOOOOOOOOOOOOOOOOOOOOOOOOOOOOOOOOOOOOO                        ",
"                        OOOOOOOOOOOOOOOOOOOOOOOOOOOOOOOOOOOOOOOOOOOOOOOOOOOOOOOOOOOOOOOOOOOOOOOO                        ",
"                        OOOOOOOOOOOOOOOOOOOOOOOOOOOOOOOOOOOOOOOOOOOOOOOOOOOOOOOOOOOOOOOOOOOOOOOO                        ",
"                        OOOOOOOOOOOOOOOOOOOOOOOOOOOOOOOOOOOOOOOOOOOOOOOOOOOOOOOOOOOOOOOOOOOOOOOO                        ",
"                        OOOOOOOOOOOOOOOOOOOOOOOOOOOOOOOOOOOOOOOOOOOOOOOOOOOOOOOOOOOOOOOOOOOOOOOO                        ",
"                        OOOOOOOO        OOOOOOOO        OOOOOOOO        OOOOOOOO        OOOOOOOO                        ",
"                        OOOOOOOO        OOOOOOOO        OOOOOOOO        OOOOOOOO        OOOOOOOO                        ",
"                        OOOOOOOO        OOOOOOOO        OOOOOOOO        OOOOOOOO        OOOOOOOO                        ",
"                        OOOOOOOO        OOOOOOOO        OOOOOOOO        OOOOOOOO        OOOOOOOO                        ",
"                        OOOOOOOO        OOOOOOOO        OOOOOOOO        OOOOOOOO        OOOOOOOO                        ",
"                        OOOOOOOO        OOOOOOOO        OOOOOOOO        OOOOOOOO        OOOOOOOO                        ",
"                        OOOOOOOO        OOOOOOOO        OOOOOOOO        OOOOOOOO        OOOOOOOO                        ",
"                        OOOOOOOO        OOOOOOOO        OOOOOOOO        OOOOOOOO        OOOOOOOO                        ",
"                                                                                                            ..          ",
"                                                                                                            ..          ",
"                                                                                                          ..oo..        ",
"                                                                                                          ..oo..        ",
"                                                                                                        ..oo$$oo..      ",
"                                                                                                        ..oo$$oo..      ",
"                                                                                                          ..oo..        ",
"                                                                                                          ..oo..        ",
"                                                                                                            ..          ",
"                                                                                                            ..          ",
"                                                                                                                        ",
"                                                                                                                        ",
"                                                                                                                        ",
"                                                                                                                        ",
"                                                                                                                        ",
"                                                                                                                        "
};
