/* XPM */
static char *_f0dc25534a84e30e91a93e65bfed6f7iqJ1wGkWyDcfWAxE[] = {
/* columns rows colors chars-per-pixel */
"120 120 6 1 ",
"  c #030826",
". c #040C37",
"X c #050F46",
"o c #7E7E8F",
"O c #C2C2D1",
"+ c white",
/* pixels */
"                                                                                                                        ",
"                                                                                                                        ",
"            ..                                                                                                          ",
"            ..                                                                                                          ",
"          ..XX..                                                                                                        ",
"          ..XX..                                                                                                        ",
"        ..XX++XX..                                                                                                      ",
"        ..XX++XX..                                                                                                      ",
"          ..XX..                                                                                              ..        ",
"          ..XX..                                                                                              ..        ",
"            ..                                                                                              ..XX..      ",
"            ..                                                                                              ..XX..      ",
"                                                                                                          ..XX++XX..    ",
"                                                                                                          ..XX++XX..    ",
"                                                                                                            ..XX..      ",
"                                                                                                            ..XX..      ",
"                        oooooooooooooooooooooooooooooooooooooooooooooooooooooooooooooooooooooooo              ..        ",
"                        oooooooooooooooooooooooooooooooooooooooooooooooooooooooooooooooooooooooo              ..        ",
"                        oooooooooooooooooooooooooooooooooooooooooooooooooooooooooooooooooooooooo                        ",
"                        oooooooooooooooooooooooooooooooooooooooooooooooooooooooooooooooooooooooo                        ",
"                        oooooooooooooooooooooooooooooooooooooooooooooooooooooooooooooooooooooooo                        ",
"                        oooooooooooooooooooooooooooooooooooooooooooooooooooooooooooooooooooooooo                        ",
"                        oooooooooooooooooooooooooooooooooooooooooooooooooooooooooooooooooooooooo                        ",
"                        oooooooooooooooooooooooooooooooooooooooooooooooooooooooooooooooooooooooo                        ",
"                ooooooooOOOOOOOOOOOOOOOOOOOOOOOOOOOOOOOOOOOOOOOOOOOOOOOOOOOOOOOOOOOOOOOOOOOOOOOOoooooooo                ",
"                ooooooooOOOOOOOOOOOOOOOOOOOOOOOOOOOOOOOOOOOOOOOOOOOOOOOOOOOOOOOOOOOOOOOOOOOOOOOOoooooooo                ",
"                ooooooooOOOOOOOOOOOOOOOOOOOOOOOOOOOOOOOOOOOOOOOOOOOOOOOOOOOOOOOOOOOOOOOOOOOOOOOOoooooooo                ",
"                ooooooooOOOOOOOOOOOOOOOOOOOOOOOOOOOOOOOOOOOOOOOOOOOOOOOOOOOOOOOOOOOOOOOOOOOOOOOOoooooooo                ",
"                ooooooooOOOOOOOOOOOOOOOOOOOOOOOOOOOOOOOOOOOOOOOOOOOOOOOOOOOOOOOOOOOOOOOOOOOOOOOOoooooooo                ",
"                ooooooooOOOOOOOOOOOOOOOOOOOOOOOOOOOOOOOOOOOOOOOOOOOOOOOOOOOOOOOOOOOOOOOOOOOOOOOOoooooooo                ",
"                ooooooooOOOOOOOOOOOOOOOOOOOOOOOOOOOOOOOOOOOOOOOOOOOOOOOOOOOOOOOOOOOOOOOOOOOOOOOOoooooooo                ",
"                ooooooooOOOOOOOOOOOOOOOOOOOOOOOOOOOOOOOOOOOOOOOOOOOOOOOOOOOOOOOOOOOOOOOOOOOOOOOOoooooooo                ",
"                ooooooooOOOOOOOOOOOOOOOOOOOOOOOOOOOOOOOOOOOOOOOOOOOOOOOOOOOOOOOOOOOOOOOOOOOOOOOOoooooooo                ",
"                ooooooooOOOOOOOOOOOOOOOOOOOOOOOOOOOOOOOOOOOOOOOOOOOOOOOOOOOOOOOOOOOOOOOOOOOOOOOOoooooooo                ",
"                ooooooooOOOOOOOOOOOOOOOOOOOOOOOOOOOOOOOOOOOOOOOOOOOOOOOOOOOOOOOOOOOOOOOOOOOOOOOOoooooooo                ",
"                ooooooooOOOOOOOOOOOOOOOOOOOOOOOOOOOOOOOOOOOOOOOOOOOOOOOOOOOOOOOOOOOOOOOOOOOOOOOOoooooooo                ",
"                ooooooooOOOOOOOOOOOOOOOOOOOOOOOOOOOOOOOOOOOOOOOOOOOOOOOOOOOOOOOOOOOOOOOOOOOOOOOOoooooooo                ",
"                ooooooooOOOOOOOOOOOOOOOOOOOOOOOOOOOOOOOOOOOOOOOOOOOOOOOOOOOOOOOOOOOOOOOOOOOOOOOOoooooooo                ",
"                ooooooooOOOOOOOOOOOOOOOOOOOOOOOOOOOOOOOOOOOOOOOOOOOOOOOOOOOOOOOOOOOOOOOOOOOOOOOOoooooooo                ",
"                ooooooooOOOOOOOOOOOOOOOOOOOOOOOOOOOOOOOOOOOOOOOOOOOOOOOOOOOOOOOOOOOOOOOOOOOOOOOOoooooooo                ",
"                ooooooooOOOOOOOOOOOOOOOOOOOOOOOOOOOOOOOOOOOOOOOOOOOOOOOOOOOOOOOOOOOOOOOOOOOOOOOOoooooooo                ",
"                ooooooooOOOOOOOOOOOOOOOOOOOOOOOOOOOOOOOOOOOOOOOOOOOOOOOOOOOOOOOOOOOOOOOOOOOOOOOOoooooooo                ",
"                ooooooooOOOOOOOOOOOOOOOOOOOOOOOOOOOOOOOOOOOOOOOOOOOOOOOOOOOOOOOOOOOOOOOOOOOOOOOOoooooooo                ",
"                ooooooooOOOOOOOOOOOOOOOOOOOOOOOOOOOOOOOOOOOOOOOOOOOOOOOOOOOOOOOOOOOOOOOOOOOOOOOOoooooooo                ",
"                ooooooooOOOOOOOOOOOOOOOOOOOOOOOOOOOOOOOOOOOOOOOOOOOOOOOOOOOOOOOOOOOOOOOOOOOOOOOOoooooooo                ",
"                ooooooooOOOOOOOOOOOOOOOOOOOOOOOOOOOOOOOOOOOOOOOOOOOOOOOOOOOOOOOOOOOOOOOOOOOOOOOOoooooooo                ",
"                ooooooooOOOOOOOOOOOOOOOOOOOOOOOOOOOOOOOOOOOOOOOOOOOOOOOOOOOOOOOOOOOOOOOOOOOOOOOOoooooooo                ",
"                ooooooooOOOOOOOOOOOOOOOOOOOOOOOOOOOOOOOOOOOOOOOOOOOOOOOOOOOOOOOOOOOOOOOOOOOOOOOOoooooooo                ",
"                ooooooooOOOOOOOOOOOOOOOOOOOOOOOOOOOOOOOOOOOOOOOOOOOOOOOOOOOOOOOOOOOOOOOOOOOOOOOOoooooooo                ",
"                ooooooooOOOOOOOOOOOOOOOOOOOOOOOOOOOOOOOOOOOOOOOOOOOOOOOOOOOOOOOOOOOOOOOOOOOOOOOOoooooooo                ",
"                ooooooooOOOOOOOOOOOOOOOOOOOOOOOOOOOOOOOOOOOOOOOOOOOOOOOOOOOOOOOOOOOOOOOOOOOOOOOOoooooooo                ",
"                ooooooooOOOOOOOOOOOOOOOOOOOOOOOOOOOOOOOOOOOOOOOOOOOOOOOOOOOOOOOOOOOOOOOOOOOOOOOOoooooooo                ",
"                ooooooooOOOOOOOOOOOOOOOOOOOOOOOOOOOOOOOOOOOOOOOOOOOOOOOOOOOOOOOOOOOOOOOOOOOOOOOOoooooooo                ",
"                ooooooooOOOOOOOOOOOOOOOOOOOOOOOOOOOOOOOOOOOOOOOOOOOOOOOOOOOOOOOOOOOOOOOOOOOOOOOOoooooooo                ",
"                ooooooooOOOOOOOOOOOOOOOOOOOOOOOOOOOOOOOOOOOOOOOOOOOOOOOOOOOOOOOOOOOOOOOOOOOOOOOOoooooooo                ",
"                ooooooooOOOOOOOOOOOOOOOOOOOOOOOOOOOOOOOOOOOOOOOOOOOOOOOOOOOOOOOOOOOOOOOOOOOOOOOOoooooooo                ",
"                ooooooooOOOOOOOOOOOOOOOOOOOOOOOOOOOOOOOOOOOOOOOOOOOOOOOOOOOOOOOOOOOOOOOOOOOOOOOOoooooooo                ",
"                ooooooooOOOOOOOOOOOOOOOOOOOOOOOOOOOOOOOOOOOOOOOOOOOOOOOOOOOOOOOOOOOOOOOOOOOOOOOOoooooooo                ",
"                ooooooooOOOOOOOOOOOOOOOOOOOOOOOOOOOOOOOOOOOOOOOOOOOOOOOOOOOOOOOOOOOOOOOOOOOOOOOOoooooooo                ",
"                ooooooooOOOOOOOOOOOOOOOOOOOOOOOOOOOOOOOOOOOOOOOOOOOOOOOOOOOOOOOOOOOOOOOOOOOOOOOOoooooooo                ",
"                ooooooooOOOOOOOOOOOOOOOOOOOOOOOOOOOOOOOOOOOOOOOOOOOOOOOOOOOOOOOOOOOOOOOOOOOOOOOOoooooooo                ",
"                ooooooooOOOOOOOOOOOOOOOOOOOOOOOOOOOOOOOOOOOOOOOOOOOOOOOOOOOOOOOOOOOOOOOOOOOOOOOOoooooooo                ",
"                ooooooooOOOOOOOOOOOOOOOOOOOOOOOOOOOOOOOOOOOOOOOOOOOOOOOOOOOOOOOOOOOOOOOOOOOOOOOOoooooooo                ",
"                ooooooooOOOOOOOOOOOOOOOOOOOOOOOOOOOOOOOOOOOOOOOOOOOOOOOOOOOOOOOOOOOOOOOOOOOOOOOOoooooooo                ",
"                        oooooooooooooooooooooooooooooooooooooooooooooooooooooooooooooooooooooooo                        ",
"                        oooooooooooooooooooooooooooooooooooooooooooooooooooooooooooooooooooooooo                        ",
"                        oooooooooooooooooooooooooooooooooooooooooooooooooooooooooooooooooooooooo                        ",
"                        oooooooooooooooooooooooooooooooooooooooooooooooooooooooooooooooooooooooo                        ",
"                        oooooooooooooooooooooooooooooooooooooooooooooooooooooooooooooooooooooooo                        ",
"                        oooooooooooooooooooooooooooooooooooooooooooooooooooooooooooooooooooooooo                        ",
"                        oooooooooooooooooooooooooooooooooooooooooooooooooooooooooooooooooooooooo                        ",
"                        oooooooooooooooooooooooooooooooooooooooooooooooooooooooooooooooooooooooo                        ",
"                                ooooooooOOOOOOOOOOOOOOOOOOOOOOOOOOOOOOOOOOOOOOOOoooooooo                                ",
"                                ooooooooOOOOOOOOOOOOOOOOOOOOOOOOOOOOOOOOOOOOOOOOoooooooo                                ",
"                                ooooooooOOOOOOOOOOOOOOOOOOOOOOOOOOOOOOOOOOOOOOOOoooooooo                                ",
"                                ooooooooOOOOOOOOOOOOOOOOOOOOOOOOOOOOOOOOOOOOOOOOoooooooo                                ",
"                                ooooooooOOOOOOOOOOOOOOOOOOOOOOOOOOOOOOOOOOOOOOOOoooooooo                                ",
"                                ooooooooOOOOOOOOOOOOOOOOOOOOOOOOOOOOOOOOOOOOOOOOoooooooo                                ",
"                                ooooooooOOOOOOOOOOOOOOOOOOOOOOOOOOOOOOOOOOOOOOOOoooooooo                                ",
"                                ooooooooOOOOOOOOOOOOOOOOOOOOOOOOOOOOOOOOOOOOOOOOoooooooo                                ",
"                                ooooooooOOOOOOOOOOOOOOOOOOOOOOOOOOOOOOOOOOOOOOOOoooooooo                                ",
"                                ooooooooOOOOOOOOOOOOOOOOOOOOOOOOOOOOOOOOOOOOOOOOoooooooo                                ",
"                                ooooooooOOOOOOOOOOOOOOOOOOOOOOOOOOOOOOOOOOOOOOOOoooooooo                                ",
"                                ooooooooOOOOOOOOOOOOOOOOOOOOOOOOOOOOOOOOOOOOOOOOoooooooo                                ",
"                                ooooooooOOOOOOOOOOOOOOOOOOOOOOOOOOOOOOOOOOOOOOOOoooooooo                                ",
"                                ooooooooOOOOOOOOOOOOOOOOOOOOOOOOOOOOOOOOOOOOOOOOoooooooo                                ",
"                                ooooooooOOOOOOOOOOOOOOOOOOOOOOOOOOOOOOOOOOOOOOOOoooooooo                                ",
"                                ooooooooOOOOOOOOOOOOOOOOOOOOOOOOOOOOOOOOOOOOOOOOoooooooo                                ",
"                                ooooooooOOOOOOOOooooooooooooooooooooooooOOOOOOOOoooooooo                                ",
"                                ooooooooOOOOOOOOooooooooooooooooooooooooOOOOOOOOoooooooo                                ",
"              ..                ooooooooOOOOOOOOooooooooooooooooooooooooOOOOOOOOoooooooo                                ",
"              ..                ooooooooOOOOOOOOooooooooooooooooooooooooOOOOOOOOoooooooo                                ",
"            ..XX..              ooooooooOOOOOOOOooooooooooooooooooooooooOOOOOOOOoooooooo                                ",
"            ..XX..              ooooooooOOOOOOOOooooooooooooooooooooooooOOOOOOOOoooooooo                                ",
"          ..XX++XX..            ooooooooOOOOOOOOooooooooooooooooooooooooOOOOOOOOoooooooo                                ",
"          ..XX++XX..            ooooooooOOOOOOOOooooooooooooooooooooooooOOOOOOOOoooooooo                                ",
"            ..XX..              oooooooooooooooooooooooo        oooooooooooooooooooooooo                                ",
"            ..XX..              oooooooooooooooooooooooo        oooooooooooooooooooooooo                                ",
"              ..                oooooooooooooooooooooooo        oooooooooooooooooooooooo                                ",
"              ..                oooooooooooooooooooooooo        oooooooooooooooooooooooo                                ",
"                                oooooooooooooooooooooooo        oooooooooooooooooooooooo              ..                ",
"                                oooooooooooooooooooooooo        oooooooooooooooooooooooo              ..                ",
"                                oooooooooooooooooooooooo        oooooooooooooooooooooooo            ..XX..              ",
"                                oooooooooooooooooooooooo        oooooooooooooooooooooooo            ..XX..              ",
"                                                                                                  ..XX++XX..            ",
"                                                                                                  ..XX++XX..            ",
"                                                                                                    ..XX..              ",
"                                                                                                    ..XX..              ",
"                                                                                                      ..                ",
"                                                                                                      ..                ",
"                                                                                                                        ",
"                                                                                                                        ",
"                                                                                                                        ",
"                                                                                                                        ",
"                                                                                                                        ",
"                                                                                                                        ",
"                                                                                                                        ",
"                                                                                                                        ",
"                                                                                                                        ",
"                                                                                                                        "
};
