/* XPM */
static char *c84210a01e534b51808b63a52902973b4pmayn9DlfMyw0wi[] = {
/* columns rows colors chars-per-pixel */
"120 120 8 1 ",
"  c #030826",
". c #040C37",
"X c #050F46",
"o c #3E2347",
"O c #57294B",
"+ c #7E7E8F",
"@ c #C2C2D1",
"# c white",
/* pixels */
"                                                                                                                        ",
"                                                                                                                        ",
"                                                                                                            ..          ",
"                                                                                                            ..          ",
"                                                                                                          ..XX..        ",
"                                                                                                          ..XX..        ",
"                                                                                                        ..XX##XX..      ",
"                                                                                                        ..XX##XX..      ",
"                                                                                                          ..XX..        ",
"                                                                                                          ..XX..        ",
"                                                                                                            ..          ",
"                                                                                                            ..          ",
"      ..                                                                                                                ",
"      ..                                                                                                                ",
"    ..XX..                                                                                                              ",
"    ..XX..                                                                                                              ",
"  ..XX##XX..            ++++++++++++++++++++++++++++++++++++++++++++++++++++++++++++++++++++++++                        ",
"  ..XX##XX..            ++++++++++++++++++++++++++++++++++++++++++++++++++++++++++++++++++++++++                        ",
"    ..XX..              ++++++++++++++++++++++++++++++++++++++++++++++++++++++++++++++++++++++++                        ",
"    ..XX..              ++++++++++++++++++++++++++++++++++++++++++++++++++++++++++++++++++++++++                        ",
"      ..                ++++++++++++++++++++++++++++++++++++++++++++++++++++++++++++++++++++++++                        ",
"      ..                ++++++++++++++++++++++++++++++++++++++++++++++++++++++++++++++++++++++++                        ",
"                        ++++++++++++++++++++++++++++++++++++++++++++++++++++++++++++++++++++++++                        ",
"                        ++++++++++++++++++++++++++++++++++++++++++++++++++++++++++++++++++++++++                        ",
"                ++++++++@@@@@@@@@@@@@@@@@@@@@@@@@@@@@@@@@@@@@@@@@@@@@@@@@@@@@@@@@@@@@@@@@@@@@@@@++++++++                ",
"                ++++++++@@@@@@@@@@@@@@@@@@@@@@@@@@@@@@@@@@@@@@@@@@@@@@@@@@@@@@@@@@@@@@@@@@@@@@@@++++++++                ",
"                ++++++++@@@@@@@@@@@@@@@@@@@@@@@@@@@@@@@@@@@@@@@@@@@@@@@@@@@@@@@@@@@@@@@@@@@@@@@@++++++++                ",
"                ++++++++@@@@@@@@@@@@@@@@@@@@@@@@@@@@@@@@@@@@@@@@@@@@@@@@@@@@@@@@@@@@@@@@@@@@@@@@++++++++                ",
"                ++++++++@@@@@@@@@@@@@@@@@@@@@@@@@@@@@@@@@@@@@@@@@@@@@@@@@@@@@@@@@@@@@@@@@@@@@@@@++++++++                ",
"                ++++++++@@@@@@@@@@@@@@@@@@@@@@@@@@@@@@@@@@@@@@@@@@@@@@@@@@@@@@@@@@@@@@@@@@@@@@@@++++++++                ",
"                ++++++++@@@@@@@@@@@@@@@@@@@@@@@@@@@@@@@@@@@@@@@@@@@@@@@@@@@@@@@@@@@@@@@@@@@@@@@@++++++++                ",
"                ++++++++@@@@@@@@@@@@@@@@@@@@@@@@@@@@@@@@@@@@@@@@@@@@@@@@@@@@@@@@@@@@@@@@@@@@@@@@++++++++                ",
"                ++++++++@@@@@@@@oooooooooooooooooooooooooooooooo########oooooooooooooooo@@@@@@@@++++++++                ",
"                ++++++++@@@@@@@@oooooooooooooooooooooooooooooooo########oooooooooooooooo@@@@@@@@++++++++                ",
"                ++++++++@@@@@@@@oooooooooooooooooooooooooooooooo########oooooooooooooooo@@@@@@@@++++++++                ",
"                ++++++++@@@@@@@@oooooooooooooooooooooooooooooooo########oooooooooooooooo@@@@@@@@++++++++                ",
"                ++++++++@@@@@@@@oooooooooooooooooooooooooooooooo########oooooooooooooooo@@@@@@@@++++++++                ",
"                ++++++++@@@@@@@@oooooooooooooooooooooooooooooooo########oooooooooooooooo@@@@@@@@++++++++                ",
"                ++++++++@@@@@@@@oooooooooooooooooooooooooooooooo########oooooooooooooooo@@@@@@@@++++++++                ",
"                ++++++++@@@@@@@@oooooooooooooooooooooooooooooooo########oooooooooooooooo@@@@@@@@++++++++                ",
"                ++++++++@@@@@@@@ooooooooooooooooOOOOOOOOOOOOOOOOOOOOOOOO########oooooooo@@@@@@@@++++++++                ",
"                ++++++++@@@@@@@@ooooooooooooooooOOOOOOOOOOOOOOOOOOOOOOOO########oooooooo@@@@@@@@++++++++                ",
"                ++++++++@@@@@@@@ooooooooooooooooOOOOOOOOOOOOOOOOOOOOOOOO########oooooooo@@@@@@@@++++++++                ",
"                ++++++++@@@@@@@@ooooooooooooooooOOOOOOOOOOOOOOOOOOOOOOOO########oooooooo@@@@@@@@++++++++                ",
"                ++++++++@@@@@@@@ooooooooooooooooOOOOOOOOOOOOOOOOOOOOOOOO########oooooooo@@@@@@@@++++++++                ",
"                ++++++++@@@@@@@@ooooooooooooooooOOOOOOOOOOOOOOOOOOOOOOOO########oooooooo@@@@@@@@++++++++                ",
"                ++++++++@@@@@@@@ooooooooooooooooOOOOOOOOOOOOOOOOOOOOOOOO########oooooooo@@@@@@@@++++++++                ",
"                ++++++++@@@@@@@@ooooooooooooooooOOOOOOOOOOOOOOOOOOOOOOOO########oooooooo@@@@@@@@++++++++                ",
"                ++++++++@@@@@@@@ooooooooOOOOOOOOOOOOOOOOOOOOOOOOOOOOOOOOOOOOOOOOoooooooo@@@@@@@@++++++++                ",
"                ++++++++@@@@@@@@ooooooooOOOOOOOOOOOOOOOOOOOOOOOOOOOOOOOOOOOOOOOOoooooooo@@@@@@@@++++++++                ",
"                ++++++++@@@@@@@@ooooooooOOOOOOOOOOOOOOOOOOOOOOOOOOOOOOOOOOOOOOOOoooooooo@@@@@@@@++++++++                ",
"                ++++++++@@@@@@@@ooooooooOOOOOOOOOOOOOOOOOOOOOOOOOOOOOOOOOOOOOOOOoooooooo@@@@@@@@++++++++                ",
"                ++++++++@@@@@@@@ooooooooOOOOOOOOOOOOOOOOOOOOOOOOOOOOOOOOOOOOOOOOoooooooo@@@@@@@@++++++++                ",
"                ++++++++@@@@@@@@ooooooooOOOOOOOOOOOOOOOOOOOOOOOOOOOOOOOOOOOOOOOOoooooooo@@@@@@@@++++++++                ",
"                ++++++++@@@@@@@@ooooooooOOOOOOOOOOOOOOOOOOOOOOOOOOOOOOOOOOOOOOOOoooooooo@@@@@@@@++++++++                ",
"                ++++++++@@@@@@@@ooooooooOOOOOOOOOOOOOOOOOOOOOOOOOOOOOOOOOOOOOOOOoooooooo@@@@@@@@++++++++                ",
"                ++++++++@@@@@@@@@@@@@@@@@@@@@@@@@@@@@@@@@@@@@@@@@@@@@@@@@@@@@@@@@@@@@@@@@@@@@@@@++++++++                ",
"                ++++++++@@@@@@@@@@@@@@@@@@@@@@@@@@@@@@@@@@@@@@@@@@@@@@@@@@@@@@@@@@@@@@@@@@@@@@@@++++++++                ",
"                ++++++++@@@@@@@@@@@@@@@@@@@@@@@@@@@@@@@@@@@@@@@@@@@@@@@@@@@@@@@@@@@@@@@@@@@@@@@@++++++++                ",
"                ++++++++@@@@@@@@@@@@@@@@@@@@@@@@@@@@@@@@@@@@@@@@@@@@@@@@@@@@@@@@@@@@@@@@@@@@@@@@++++++++                ",
"                ++++++++@@@@@@@@@@@@@@@@@@@@@@@@@@@@@@@@@@@@@@@@@@@@@@@@@@@@@@@@@@@@@@@@@@@@@@@@++++++++                ",
"                ++++++++@@@@@@@@@@@@@@@@@@@@@@@@@@@@@@@@@@@@@@@@@@@@@@@@@@@@@@@@@@@@@@@@@@@@@@@@++++++++                ",
"                ++++++++@@@@@@@@@@@@@@@@@@@@@@@@@@@@@@@@@@@@@@@@@@@@@@@@@@@@@@@@@@@@@@@@@@@@@@@@++++++++                ",
"                ++++++++@@@@@@@@@@@@@@@@@@@@@@@@@@@@@@@@@@@@@@@@@@@@@@@@@@@@@@@@@@@@@@@@@@@@@@@@++++++++                ",
"                        ++++++++++++++++++++++++++++++++++++++++++++++++++++++++++++++++++++++++                        ",
"                        ++++++++++++++++++++++++++++++++++++++++++++++++++++++++++++++++++++++++                        ",
"                        ++++++++++++++++++++++++++++++++++++++++++++++++++++++++++++++++++++++++                        ",
"                        ++++++++++++++++++++++++++++++++++++++++++++++++++++++++++++++++++++++++                        ",
"                        ++++++++++++++++++++++++++++++++++++++++++++++++++++++++++++++++++++++++                        ",
"                        ++++++++++++++++++++++++++++++++++++++++++++++++++++++++++++++++++++++++                        ",
"                        ++++++++++++++++++++++++++++++++++++++++++++++++++++++++++++++++++++++++                        ",
"                        ++++++++++++++++++++++++++++++++++++++++++++++++++++++++++++++++++++++++                        ",
"                                ++++++++@@@@@@@@@@@@@@@@@@@@@@@@@@@@@@@@@@@@@@@@++++++++                                ",
"                                ++++++++@@@@@@@@@@@@@@@@@@@@@@@@@@@@@@@@@@@@@@@@++++++++                                ",
"                                ++++++++@@@@@@@@@@@@@@@@@@@@@@@@@@@@@@@@@@@@@@@@++++++++                                ",
"                                ++++++++@@@@@@@@@@@@@@@@@@@@@@@@@@@@@@@@@@@@@@@@++++++++                                ",
"                                ++++++++@@@@@@@@@@@@@@@@@@@@@@@@@@@@@@@@@@@@@@@@++++++++                                ",
"                                ++++++++@@@@@@@@@@@@@@@@@@@@@@@@@@@@@@@@@@@@@@@@++++++++                                ",
"                                ++++++++@@@@@@@@@@@@@@@@@@@@@@@@@@@@@@@@@@@@@@@@++++++++                                ",
"                                ++++++++@@@@@@@@@@@@@@@@@@@@@@@@@@@@@@@@@@@@@@@@++++++++                                ",
"                                ++++++++@@@@@@@@@@@@@@@@@@@@@@@@@@@@@@@@@@@@@@@@++++++++                                ",
"                                ++++++++@@@@@@@@@@@@@@@@@@@@@@@@@@@@@@@@@@@@@@@@++++++++                                ",
"                                ++++++++@@@@@@@@@@@@@@@@@@@@@@@@@@@@@@@@@@@@@@@@++++++++                                ",
"                                ++++++++@@@@@@@@@@@@@@@@@@@@@@@@@@@@@@@@@@@@@@@@++++++++                                ",
"                                ++++++++@@@@@@@@@@@@@@@@@@@@@@@@@@@@@@@@@@@@@@@@++++++++                                ",
"                                ++++++++@@@@@@@@@@@@@@@@@@@@@@@@@@@@@@@@@@@@@@@@++++++++                                ",
"                                ++++++++@@@@@@@@@@@@@@@@@@@@@@@@@@@@@@@@@@@@@@@@++++++++                                ",
"                                ++++++++@@@@@@@@@@@@@@@@@@@@@@@@@@@@@@@@@@@@@@@@++++++++                                ",
"              ..                ++++++++@@@@@@@@++++++++++++++++++++++++@@@@@@@@++++++++                                ",
"              ..                ++++++++@@@@@@@@++++++++++++++++++++++++@@@@@@@@++++++++                                ",
"            ..XX..              ++++++++@@@@@@@@++++++++++++++++++++++++@@@@@@@@++++++++                                ",
"            ..XX..              ++++++++@@@@@@@@++++++++++++++++++++++++@@@@@@@@++++++++                                ",
"          ..XX##XX..            ++++++++@@@@@@@@++++++++++++++++++++++++@@@@@@@@++++++++                                ",
"          ..XX##XX..            ++++++++@@@@@@@@++++++++++++++++++++++++@@@@@@@@++++++++                                ",
"              XX..              ++++++++@@@@@@@@++++++++++++++++++++++++@@@@@@@@++++++++                  ..            ",
"              XX..              ++++++++@@@@@@@@++++++++++++++++++++++++@@@@@@@@++++++++                  ..            ",
"                                ++++++++++++++++++++++++        ++++++++++++++++++++++++                ..XX..          ",
"                                ++++++++++++++++++++++++        ++++++++++++++++++++++++                ..XX..          ",
"                                ++++++++++++++++++++++++        ++++++++++++++++++++++++              ..XX##XX..        ",
"                                ++++++++++++++++++++++++        ++++++++++++++++++++++++              ..XX##XX..        ",
"                                ++++++++++++++++++++++++        ++++++++++++++++++++++++                ..XX..          ",
"                                ++++++++++++++++++++++++        ++++++++++++++++++++++++                ..XX..          ",
"                                ++++++++++++++++++++++++        ++++++++++++++++++++++++                  ..            ",
"                                ++++++++++++++++++++++++        ++++++++++++++++++++++++                  ..            ",
"                                                                                                                        ",
"                                                                                                                        ",
"                                                                                                                        ",
"                                                                                                                        ",
"                                                                                                                        ",
"                                                                                                                        ",
"                                                                                                                        ",
"                                                                                                                        ",
"                                                                                                                        ",
"                                                                                                                        ",
"                                                                                                                        ",
"                                                                                                                        ",
"                                                                                                                        ",
"                                                                                                                        ",
"                                                                                                                        ",
"                                                                                                                        "
};
