/* XPM */
static char *a9216118beb040eea89c4dffedf6ed28iPeCMmQSrNLYrVDK[] = {
/* columns rows colors chars-per-pixel */
"120 120 9 1 ",
"  c #010622",
". c #030826",
"X c #040C37",
"o c #050F46",
"O c #3E2347",
"+ c #57294B",
"@ c #7E7E8F",
"# c #C2C2D1",
"$ c white",
/* pixels */
"........................................................................................................................",
"................................................................................XX......................................",
"................................................................................XX......................................",
"..............................................................................XXooXX....................................",
"..............................................................................XXooXX....................................",
"............................................................................XXoo$$ooXX..................................",
"............................................................................XXoo$$ooXX..................................",
"..............................................................................XXooXX....................................",
".......XX.....................................................................XXooXX....................................",
".......XX.......................................................................XX......................................",
".....XXooXX.....................................................................XX......................................",
".....XXooXX.  ..........................................................................................................",
"...XXoo$$ooXX ..........................................................................................................",
"...XXoo$$ooXX ..........................................................................................................",
".....XXooXX.............................................................................................................",
".....XXooXX.............................................................................................................",
".......XX...............@@@@@@@@@@@@@@@@@@@@@@@@@@@@@@@@@@@@@@@@@@@@@@@@@@@@@@@@@@@@@@@@@@@@@@@@........................",
".......XX...............@@@@@@@@@@@@@@@@@@@@@@@@@@@@@@@@@@@@@@@@@@@@@@@@@@@@@@@@@@@@@@@@@@@@@@@@........................",
"........................@@@@@@@@@@@@@@@@@@@@@@@@@@@@@@@@@@@@@@@@@@@@@@@@@@@@@@@@@@@@@@@@@@@@@@@@........................",
"........................@@@@@@@@@@@@@@@@@@@@@@@@@@@@@@@@@@@@@@@@@@@@@@@@@@@@@@@@@@@@@@@@@@@@@@@@........................",
"........................@@@@@@@@@@@@@@@@@@@@@@@@@@@@@@@@@@@@@@@@@@@@@@@@@@@@@@@@@@@@@@@@@@@@@@@@........................",
"........................@@@@@@@@@@@@@@@@@@@@@@@@@@@@@@@@@@@@@@@@@@@@@@@@@@@@@@@@@@@@@@@@@@@@@@@@........................",
"........................@@@@@@@@@@@@@@@@@@@@@@@@@@@@@@@@@@@@@@@@@@@@@@@@@@@@@@@@@@@@@@@@@@@@@@@@........................",
"........................@@@@@@@@@@@@@@@@@@@@@@@@@@@@@@@@@@@@@@@@@@@@@@@@@@@@@@@@@@@@@@@@@@@@@@@@........................",
"................@@@@@@@@########################################################################@@@@@@@@................",
"................@@@@@@@@########################################################################@@@@@@@@................",
"................@@@@@@@@########################################################################@@@@@@@@................",
"................@@@@@@@@########################################################################@@@@@@@@................",
"................@@@@@@@@########################################################################@@@@@@@@................",
"................@@@@@@@@########################################################################@@@@@@@@................",
"................@@@@@@@@########################################################################@@@@@@@@................",
"................@@@@@@@@########################################################################@@@@@@@@................",
"................@@@@@@@@########++++++++++++++++++++++++++++++++++++++++++++++++OOOOOOOO########@@@@@@@@................",
"................@@@@@@@@########++++++++++++++++++++++++++++++++++++++++++++++++OOOOOOOO########@@@@@@@@................",
"................@@@@@@@@########++++++++++++++++++++++++++++++++++++++++++++++++OOOOOOOO########@@@@@@@@................",
"................@@@@@@@@########++++++++++++++++++++++++++++++++++++++++++++++++OOOOOOOO########@@@@@@@@................",
"................@@@@@@@@########++++++++++++++++++++++++++++++++++++++++++++++++OOOOOOOO########@@@@@@@@................",
"................@@@@@@@@########++++++++++++++++++++++++++++++++++++++++++++++++OOOOOOOO########@@@@@@@@................",
"................@@@@@@@@########++++++++++++++++++++++++++++++++++++++++++++++++OOOOOOOO########@@@@@@@@................",
"................@@@@@@@@########++++++++++++++++++++++++++++++++++++++++++++++++OOOOOOOO########@@@@@@@@................",
"................@@@@@@@@########$$$$$$$$++++++++++++++++++++++++++++++++OOOOOOOOOOOOOOOO########@@@@@@@@................",
"................@@@@@@@@########$$$$$$$$++++++++++++++++++++++++++++++++OOOOOOOOOOOOOOOO########@@@@@@@@................",
"................@@@@@@@@########$$$$$$$$++++++++++++++++++++++++++++++++OOOOOOOOOOOOOOOO########@@@@@@@@................",
"................@@@@@@@@########$$$$$$$$++++++++++++++++++++++++++++++++OOOOOOOOOOOOOOOO########@@@@@@@@................",
"................@@@@@@@@########$$$$$$$$++++++++++++++++++++++++++++++++OOOOOOOOOOOOOOOO########@@@@@@@@................",
"................@@@@@@@@########$$$$$$$$++++++++++++++++++++++++++++++++OOOOOOOOOOOOOOOO########@@@@@@@@................",
"................@@@@@@@@########$$$$$$$$++++++++++++++++++++++++++++++++OOOOOOOOOOOOOOOO########@@@@@@@@................",
"................@@@@@@@@########$$$$$$$$++++++++++++++++++++++++++++++++OOOOOOOOOOOOOOOO########@@@@@@@@................",
"................@@@@@@@@########OOOOOOOO$$$$$$$$OOOOOOOOOOOOOOOOOOOOOOOOOOOOOOOOOOOOOOOO########@@@@@@@@................",
"................@@@@@@@@########OOOOOOOO$$$$$$$$OOOOOOOOOOOOOOOOOOOOOOOOOOOOOOOOOOOOOOOO########@@@@@@@@.........XX.....",
"................@@@@@@@@########OOOOOOOO$$$$$$$$OOOOOOOOOOOOOOOOOOOOOOOOOOOOOOOOOOOOOOOO########@@@@@@@@.........XX.....",
"................@@@@@@@@########OOOOOOOO$$$$$$$$OOOOOOOOOOOOOOOOOOOOOOOOOOOOOOOOOOOOOOOO########@@@@@@@@.......XXooXX...",
"................@@@@@@@@########OOOOOOOO$$$$$$$$OOOOOOOOOOOOOOOOOOOOOOOOOOOOOOOOOOOOOOOO########@@@@@@@@.......XXooXX...",
"................@@@@@@@@########OOOOOOOO$$$$$$$$OOOOOOOOOOOOOOOOOOOOOOOOOOOOOOOOOOOOOOOO########@@@@@@@@.....XXoo$$ooXX.",
"................@@@@@@@@########OOOOOOOO$$$$$$$$OOOOOOOOOOOOOOOOOOOOOOOOOOOOOOOOOOOOOOOO########@@@@@@@@.....XXoo$$ooXX.",
"................@@@@@@@@########OOOOOOOO$$$$$$$$OOOOOOOOOOOOOOOOOOOOOOOOOOOOOOOOOOOOOOOO########@@@@@@@@.......XXooXX...",
"................@@@@@@@@########################################################################@@@@@@@@.......XXooXX...",
"................@@@@@@@@########################################################################@@@@@@@@.........XX.....",
"................@@@@@@@@########################################################################@@@@@@@@.........XX.....",
"................@@@@@@@@########################################################################@@@@@@@@................",
"................@@@@@@@@########################################################################@@@@@@@@................",
"................@@@@@@@@########################################################################@@@@@@@@................",
"................@@@@@@@@########################################################################@@@@@@@@................",
"................@@@@@@@@########################################################################@@@@@@@@................",
"........................@@@@@@@@@@@@@@@@@@@@@@@@@@@@@@@@@@@@@@@@@@@@@@@@@@@@@@@@@@@@@@@@@@@@@@@@@@@@@@@@................",
"........................@@@@@@@@@@@@@@@@@@@@@@@@@@@@@@@@@@@@@@@@@@@@@@@@@@@@@@@@@@@@@@@@@@@@@@@@@@@@@@@@................",
"........................@@@@@@@@@@@@@@@@@@@@@@@@@@@@@@@@@@@@@@@@@@@@@@@@@@@@@@@@@@@@@@@@@@@@@@@@@@@@@@@@................",
"........................@@@@@@@@@@@@@@@@@@@@@@@@@@@@@@@@@@@@@@@@@@@@@@@@@@@@@@@@@@@@@@@@@@@@@@@@@@@@@@@@................",
"........................@@@@@@@@@@@@@@@@@@@@@@@@@@@@@@@@@@@@@@@@@@@@@@@@@@@@@@@@@@@@@@@@@@@@@@@@@@@@@@@@................",
"........................@@@@@@@@@@@@@@@@@@@@@@@@@@@@@@@@@@@@@@@@@@@@@@@@@@@@@@@@@@@@@@@@@@@@@@@@@@@@@@@@................",
"........................@@@@@@@@@@@@@@@@@@@@@@@@@@@@@@@@@@@@@@@@@@@@@@@@@@@@@@@@@@@@@@@@@@@@@@@@@@@@@@@@................",
"........................@@@@@@@@@@@@@@@@@@@@@@@@@@@@@@@@@@@@@@@@@@@@@@@@@@@@@@@@@@@@@@@@@@@@@@@@@@@@@@@@................",
"................................@@@@@@@@########################################@@@@@@@@########@@@@@@@@................",
"................................@@@@@@@@########################################@@@@@@@@########@@@@@@@@................",
"................................@@@@@@@@########################################@@@@@@@@########@@@@@@@@................",
"................................@@@@@@@@########################################@@@@@@@@########@@@@@@@@................",
"................................@@@@@@@@########################################@@@@@@@@########@@@@@@@@................",
"................................@@@@@@@@########################################@@@@@@@@########@@@@@@@@................",
"................................@@@@@@@@########################################@@@@@@@@########@@@@@@@@................",
"................................@@@@@@@@########################################@@@@@@@@########@@@@@@@@................",
"................................@@@@@@@@########################################@@@@@@@@########@@@@@@@@................",
"................................@@@@@@@@########################################@@@@@@@@########@@@@@@@@................",
"................................@@@@@@@@########################################@@@@@@@@########@@@@@@@@................",
"................................@@@@@@@@########################################@@@@@@@@########@@@@@@@@................",
"................................@@@@@@@@########################################@@@@@@@@########@@@@@@@@................",
"................................@@@@@@@@########################################@@@@@@@@########@@@@@@@@................",
"................................@@@@@@@@########################################@@@@@@@@########@@@@@@@@................",
"................................@@@@@@@@########################################@@@@@@@@########@@@@@@@@................",
"..............XX................@@@@@@@@########@@@@@@@@@@@@@@@@@@@@@@@@########@@@@@@@@@@@@@@@@@@@@@@@@................",
"..............XX................@@@@@@@@########@@@@@@@@@@@@@@@@@@@@@@@@########@@@@@@@@@@@@@@@@@@@@@@@@................",
"............XXooXX..............@@@@@@@@########@@@@@@@@@@@@@@@@@@@@@@@@########@@@@@@@@@@@@@@@@@@@@@@@@................",
"............XXooXX..............@@@@@@@@########@@@@@@@@@@@@@@@@@@@@@@@@########@@@@@@@@@@@@@@@@@@@@@@@@................",
"..........XXoo$$ooXX............@@@@@@@@########@@@@@@@@@@@@@@@@@@@@@@@@########@@@@@@@@@@@@@@@@@@@@@@@@................",
"..........XXoo$$ooXX............@@@@@@@@########@@@@@@@@@@@@@@@@@@@@@@@@########@@@@@@@@@@@@@@@@@@@@@@@@................",
"............XXooXX..............@@@@@@@@########@@@@@@@@@@@@@@@@@@@@@@@@########@@@@@@@@@@@@@@@@@@@@@@@@................",
"............XXooXX..............@@@@@@@@########@@@@@@@@@@@@@@@@@@@@@@@@########@@@@@@@@@@@@@@@@@@@@@@@@................",
"..............XX................@@@@@@@@@@@@@@@@@@@@@@@@........@@@@@@@@@@@@@@@@@@@@@@@@................................",
"..............XX................@@@@@@@@@@@@@@@@@@@@@@@@........@@@@@@@@@@@@@@@@@@@@@@@@................................",
"................................@@@@@@@@@@@@@@@@@@@@@@@@........@@@@@@@@@@@@@@@@@@@@@@@@................................",
"................................@@@@@@@@@@@@@@@@@@@@@@@@........@@@@@@@@@@@@@@@@@@@@@@@@................................",
"................................@@@@@@@@@@@@@@@@@@@@@@@@........@@@@@@@@@@@@@@@@@@@@@@@@................................",
"................................@@@@@@@@@@@@@@@@@@@@@@@@........@@@@@@@@@@@@@@@@@@@@@@@@................................",
"................................@@@@@@@@@@@@@@@@@@@@@@@@........@@@@@@@@@@@@@@@@@@@@@@@@................................",
"................................@@@@@@@@@@@@@@@@@@@@@@@@........@@@@@@@@@@@@@@@@@@@@@@@@................................",
"........................................................................................................................",
"........................................................................................................................",
"........................................................................................................................",
"........................................................................................................................",
"........................................................................................................................",
"........................................................................................................................",
"......................................................................................XX................................",
"......................................................................................XX................................",
"....................................................................................XXooXX..............................",
"....................................................................................XXooXX..............................",
"..................................................................................XXoo$$ooXX............................",
"..................................................................................XXoo$$ooXX............................",
"....................................................................................XXooXX..............................",
"....................................................................................XXooXX..............................",
"......................................................................................XX................................",
"......................................................................................XX................................"
};
