/* XPM */
static char *_835df4c2ef948fbd195865a52cf6a6cjECp39493ExawLuL[] = {
/* columns rows colors chars-per-pixel */
"120 120 8 1 ",
"  c #030826",
". c #040C37",
"X c #050F46",
"o c #3E2347",
"O c #57294B",
"+ c #7E7E8F",
"@ c #C2C2D1",
"# c white",
/* pixels */
"                                                                                                                        ",
"                                                                                                                        ",
"                                                                                    ..                                  ",
"                                                                                    ..                                  ",
"                                                                                  ..XX..                                ",
"                                                                                  ..XX..                                ",
"                                                                                ..XX##XX..                              ",
"                                                                                ..XX##XX..                              ",
"                                                                                  ..XX..                                ",
"                                                                                  ..XX..                                ",
"                                                                                    ..                                  ",
"                                                                                    ..                                  ",
"                                                                                                                        ",
"                                                                                                                        ",
"      ..                                                                                                                ",
"      ..                                                                                                                ",
"    ..XX..              ++++++++++++++++++++++++++++++++++++++++++++++++++++++++++++++++++++++++                        ",
"    ..XX..              ++++++++++++++++++++++++++++++++++++++++++++++++++++++++++++++++++++++++                        ",
"  ..XX##XX..            ++++++++++++++++++++++++++++++++++++++++++++++++++++++++++++++++++++++++                        ",
"  ..XX##XX..            ++++++++++++++++++++++++++++++++++++++++++++++++++++++++++++++++++++++++                        ",
"    ..XX..              ++++++++++++++++++++++++++++++++++++++++++++++++++++++++++++++++++++++++                        ",
"    ..XX..              ++++++++++++++++++++++++++++++++++++++++++++++++++++++++++++++++++++++++                        ",
"      ..                ++++++++++++++++++++++++++++++++++++++++++++++++++++++++++++++++++++++++                        ",
"      ..                ++++++++++++++++++++++++++++++++++++++++++++++++++++++++++++++++++++++++                        ",
"                ++++++++@@@@@@@@@@@@@@@@@@@@@@@@@@@@@@@@@@@@@@@@@@@@@@@@@@@@@@@@@@@@@@@@@@@@@@@@++++++++                ",
"                ++++++++@@@@@@@@@@@@@@@@@@@@@@@@@@@@@@@@@@@@@@@@@@@@@@@@@@@@@@@@@@@@@@@@@@@@@@@@++++++++                ",
"                ++++++++@@@@@@@@@@@@@@@@@@@@@@@@@@@@@@@@@@@@@@@@@@@@@@@@@@@@@@@@@@@@@@@@@@@@@@@@++++++++                ",
"                ++++++++@@@@@@@@@@@@@@@@@@@@@@@@@@@@@@@@@@@@@@@@@@@@@@@@@@@@@@@@@@@@@@@@@@@@@@@@++++++++                ",
"                ++++++++@@@@@@@@@@@@@@@@@@@@@@@@@@@@@@@@@@@@@@@@@@@@@@@@@@@@@@@@@@@@@@@@@@@@@@@@++++++++                ",
"                ++++++++@@@@@@@@@@@@@@@@@@@@@@@@@@@@@@@@@@@@@@@@@@@@@@@@@@@@@@@@@@@@@@@@@@@@@@@@++++++++                ",
"                ++++++++@@@@@@@@@@@@@@@@@@@@@@@@@@@@@@@@@@@@@@@@@@@@@@@@@@@@@@@@@@@@@@@@@@@@@@@@++++++++                ",
"                ++++++++@@@@@@@@@@@@@@@@@@@@@@@@@@@@@@@@@@@@@@@@@@@@@@@@@@@@@@@@@@@@@@@@@@@@@@@@++++++++                ",
"                ++++++++@@@@@@@@ooooooooOOOOOOOOOOOOOOOOOOOOOOOOOOOOOOOOOOOOOOOOOOOOOOOO@@@@@@@@++++++++                ",
"                ++++++++@@@@@@@@ooooooooOOOOOOOOOOOOOOOOOOOOOOOOOOOOOOOOOOOOOOOOOOOOOOOO@@@@@@@@++++++++                ",
"                ++++++++@@@@@@@@ooooooooOOOOOOOOOOOOOOOOOOOOOOOOOOOOOOOOOOOOOOOOOOOOOOOO@@@@@@@@++++++++                ",
"                ++++++++@@@@@@@@ooooooooOOOOOOOOOOOOOOOOOOOOOOOOOOOOOOOOOOOOOOOOOOOOOOOO@@@@@@@@++++++++                ",
"                ++++++++@@@@@@@@ooooooooOOOOOOOOOOOOOOOOOOOOOOOOOOOOOOOOOOOOOOOOOOOOOOOO@@@@@@@@++++++++                ",
"                ++++++++@@@@@@@@ooooooooOOOOOOOOOOOOOOOOOOOOOOOOOOOOOOOOOOOOOOOOOOOOOOOO@@@@@@@@++++++++                ",
"                ++++++++@@@@@@@@ooooooooOOOOOOOOOOOOOOOOOOOOOOOOOOOOOOOOOOOOOOOOOOOOOOOO@@@@@@@@++++++++                ",
"                ++++++++@@@@@@@@ooooooooOOOOOOOOOOOOOOOOOOOOOOOOOOOOOOOOOOOOOOOOOOOOOOOO@@@@@@@@++++++++                ",
"                ++++++++@@@@@@@@ooooooooooooooooOOOOOOOOOOOOOOOOOOOOOOOOOOOOOOOO########@@@@@@@@++++++++                ",
"                ++++++++@@@@@@@@ooooooooooooooooOOOOOOOOOOOOOOOOOOOOOOOOOOOOOOOO########@@@@@@@@++++++++                ",
"                ++++++++@@@@@@@@ooooooooooooooooOOOOOOOOOOOOOOOOOOOOOOOOOOOOOOOO########@@@@@@@@++++++++                ",
"                ++++++++@@@@@@@@ooooooooooooooooOOOOOOOOOOOOOOOOOOOOOOOOOOOOOOOO########@@@@@@@@++++++++                ",
"                ++++++++@@@@@@@@ooooooooooooooooOOOOOOOOOOOOOOOOOOOOOOOOOOOOOOOO########@@@@@@@@++++++++                ",
"                ++++++++@@@@@@@@ooooooooooooooooOOOOOOOOOOOOOOOOOOOOOOOOOOOOOOOO########@@@@@@@@++++++++                ",
"                ++++++++@@@@@@@@ooooooooooooooooOOOOOOOOOOOOOOOOOOOOOOOOOOOOOOOO########@@@@@@@@++++++++                ",
"                ++++++++@@@@@@@@ooooooooooooooooOOOOOOOOOOOOOOOOOOOOOOOOOOOOOOOO########@@@@@@@@++++++++                ",
"                ++++++++@@@@@@@@oooooooooooooooooooooooooooooooooooooooo########oooooooo@@@@@@@@++++++++                ",
"                ++++++++@@@@@@@@oooooooooooooooooooooooooooooooooooooooo########oooooooo@@@@@@@@++++++++                ",
"                ++++++++@@@@@@@@oooooooooooooooooooooooooooooooooooooooo########oooooooo@@@@@@@@++++++++                ",
"                ++++++++@@@@@@@@oooooooooooooooooooooooooooooooooooooooo########oooooooo@@@@@@@@++++++++                ",
"                ++++++++@@@@@@@@oooooooooooooooooooooooooooooooooooooooo########oooooooo@@@@@@@@++++++++                ",
"                ++++++++@@@@@@@@oooooooooooooooooooooooooooooooooooooooo########oooooooo@@@@@@@@++++++++                ",
"                ++++++++@@@@@@@@oooooooooooooooooooooooooooooooooooooooo########oooooooo@@@@@@@@++++++++                ",
"                ++++++++@@@@@@@@oooooooooooooooooooooooooooooooooooooooo########oooooooo@@@@@@@@++++++++                ",
"                ++++++++@@@@@@@@@@@@@@@@@@@@@@@@@@@@@@@@@@@@@@@@@@@@@@@@@@@@@@@@@@@@@@@@@@@@@@@@++++++++                ",
"                ++++++++@@@@@@@@@@@@@@@@@@@@@@@@@@@@@@@@@@@@@@@@@@@@@@@@@@@@@@@@@@@@@@@@@@@@@@@@++++++++                ",
"                ++++++++@@@@@@@@@@@@@@@@@@@@@@@@@@@@@@@@@@@@@@@@@@@@@@@@@@@@@@@@@@@@@@@@@@@@@@@@++++++++        ..      ",
"                ++++++++@@@@@@@@@@@@@@@@@@@@@@@@@@@@@@@@@@@@@@@@@@@@@@@@@@@@@@@@@@@@@@@@@@@@@@@@++++++++        ..      ",
"                ++++++++@@@@@@@@@@@@@@@@@@@@@@@@@@@@@@@@@@@@@@@@@@@@@@@@@@@@@@@@@@@@@@@@@@@@@@@@++++++++      ..XX..    ",
"                ++++++++@@@@@@@@@@@@@@@@@@@@@@@@@@@@@@@@@@@@@@@@@@@@@@@@@@@@@@@@@@@@@@@@@@@@@@@@++++++++      ..XX..    ",
"                ++++++++@@@@@@@@@@@@@@@@@@@@@@@@@@@@@@@@@@@@@@@@@@@@@@@@@@@@@@@@@@@@@@@@@@@@@@@@++++++++    ..XX##XX..  ",
"                ++++++++@@@@@@@@@@@@@@@@@@@@@@@@@@@@@@@@@@@@@@@@@@@@@@@@@@@@@@@@@@@@@@@@@@@@@@@@++++++++    ..XX##XX..  ",
"                ++++++++++++++++++++++++++++++++++++++++++++++++++++++++++++++++++++++++++++++++              ..XX..    ",
"                ++++++++++++++++++++++++++++++++++++++++++++++++++++++++++++++++++++++++++++++++              ..XX..    ",
"                ++++++++++++++++++++++++++++++++++++++++++++++++++++++++++++++++++++++++++++++++                ..      ",
"                ++++++++++++++++++++++++++++++++++++++++++++++++++++++++++++++++++++++++++++++++                ..      ",
"                ++++++++++++++++++++++++++++++++++++++++++++++++++++++++++++++++++++++++++++++++                        ",
"                ++++++++++++++++++++++++++++++++++++++++++++++++++++++++++++++++++++++++++++++++                        ",
"                ++++++++++++++++++++++++++++++++++++++++++++++++++++++++++++++++++++++++++++++++                        ",
"                ++++++++++++++++++++++++++++++++++++++++++++++++++++++++++++++++++++++++++++++++                        ",
"                ++++++++@@@@@@@@++++++++@@@@@@@@@@@@@@@@@@@@@@@@@@@@@@@@@@@@@@@@++++++++                                ",
"                ++++++++@@@@@@@@++++++++@@@@@@@@@@@@@@@@@@@@@@@@@@@@@@@@@@@@@@@@++++++++                                ",
"                ++++++++@@@@@@@@++++++++@@@@@@@@@@@@@@@@@@@@@@@@@@@@@@@@@@@@@@@@++++++++                                ",
"                ++++++++@@@@@@@@++++++++@@@@@@@@@@@@@@@@@@@@@@@@@@@@@@@@@@@@@@@@++++++++                                ",
"                ++++++++@@@@@@@@++++++++@@@@@@@@@@@@@@@@@@@@@@@@@@@@@@@@@@@@@@@@++++++++                                ",
"                ++++++++@@@@@@@@++++++++@@@@@@@@@@@@@@@@@@@@@@@@@@@@@@@@@@@@@@@@++++++++                                ",
"                ++++++++@@@@@@@@++++++++@@@@@@@@@@@@@@@@@@@@@@@@@@@@@@@@@@@@@@@@++++++++                                ",
"                ++++++++@@@@@@@@++++++++@@@@@@@@@@@@@@@@@@@@@@@@@@@@@@@@@@@@@@@@++++++++                                ",
"                ++++++++@@@@@@@@++++++++@@@@@@@@@@@@@@@@@@@@@@@@@@@@@@@@@@@@@@@@++++++++                                ",
"                ++++++++@@@@@@@@++++++++@@@@@@@@@@@@@@@@@@@@@@@@@@@@@@@@@@@@@@@@++++++++                                ",
"                ++++++++@@@@@@@@++++++++@@@@@@@@@@@@@@@@@@@@@@@@@@@@@@@@@@@@@@@@++++++++                                ",
"                ++++++++@@@@@@@@++++++++@@@@@@@@@@@@@@@@@@@@@@@@@@@@@@@@@@@@@@@@++++++++                                ",
"                ++++++++@@@@@@@@++++++++@@@@@@@@@@@@@@@@@@@@@@@@@@@@@@@@@@@@@@@@++++++++                                ",
"                ++++++++@@@@@@@@++++++++@@@@@@@@@@@@@@@@@@@@@@@@@@@@@@@@@@@@@@@@++++++++                                ",
"                ++++++++@@@@@@@@++++++++@@@@@@@@@@@@@@@@@@@@@@@@@@@@@@@@@@@@@@@@++++++++                                ",
"                ++++++++@@@@@@@@++++++++@@@@@@@@@@@@@@@@@@@@@@@@@@@@@@@@@@@@@@@@++++++++                                ",
"                ++++++++++++++++++++++++@@@@@@@@++++++++++++++++++++++++@@@@@@@@++++++++                                ",
"                ++++++++++++++++++++++++@@@@@@@@++++++++++++++++++++++++@@@@@@@@++++++++                                ",
"                ++++++++++++++++++++++++@@@@@@@@++++++++++++++++++++++++@@@@@@@@++++++++                                ",
"                ++++++++++++++++++++++++@@@@@@@@++++++++++++++++++++++++@@@@@@@@++++++++                                ",
"                ++++++++++++++++++++++++@@@@@@@@++++++++++++++++++++++++@@@@@@@@++++++++                                ",
"                ++++++++++++++++++++++++@@@@@@@@++++++++++++++++++++++++@@@@@@@@++++++++                                ",
"                ++++++++++++++++++++++++@@@@@@@@++++++++++++++++++++++++@@@@@@@@++++++++                            ..  ",
"                ++++++++++++++++++++++++@@@@@@@@++++++++++++++++++++++++@@@@@@@@++++++++                            ..  ",
"                                ++++++++++++++++++++++++        ++++++++++++++++++++++++                                ",
"                                ++++++++++++++++++++++++        ++++++++++++++++++++++++                                ",
"                                ++++++++++++++++++++++++        ++++++++++++++++++++++++                                ",
"                                ++++++++++++++++++++++++        ++++++++++++++++++++++++                                ",
"                  ..            ++++++++++++++++++++++++        ++++++++++++++++++++++++                                ",
"                  ..            ++++++++++++++++++++++++        ++++++++++++++++++++++++                                ",
"                ..XX..          ++++++++++++++++++++++++        ++++++++++++++++++++++++                                ",
"                ..XX..          ++++++++++++++++++++++++        ++++++++++++++++++++++++                                ",
"              ..XX##XX..                                                                                                ",
"              ..XX##XX..                                                                                                ",
"                ..XX..                                                                                                  ",
"                ..XX..                                                                                                  ",
"                  ..                                                                  ..                                ",
"                  ..                                                                  ..                                ",
"                                                                                    ..XX..                              ",
"                                                                                    ..XX..                              ",
"                                                                                  ..XX##XX..                            ",
"                                                                                  ..XX##XX..                            ",
"                                                                                    ..XX..                              ",
"                                                                                    ..XX..                              ",
"                                                                                      ..                                ",
"                                                                                      ..                                ",
"                                                                                                                        ",
"                                                                                                                        "
};
