/* XPM */
static char *_c0158d245aa4e8d84670f4744b7305cpxgsjPub6P2XjQm0[] = {
/* columns rows colors chars-per-pixel */
"120 120 12 1 ",
"  c #030826",
". c #040C37",
"X c #050F46",
"o c #FF5B15",
"O c #FF1A54",
"+ c #FF507C",
"@ c #FDE721",
"# c #7E1285",
"$ c #7E7E8F",
"% c #C2C2D1",
"& c #DFDFEA",
"* c white",
/* pixels */
"                                                                                                                        ",
"                                                                                                                        ",
"                                                                                                                        ",
"                                                                                                                        ",
"                                                                                                                        ",
"                                                                                                                        ",
"                                                                                                                        ",
"                                                                                                                        ",
"                                                                                                                        ",
"                                                                                                                        ",
"               ..                                          .                                                            ",
"               ..                                                                                                       ",
"             ..XX..                                                                                                     ",
"             ..XX..                                                                                                     ",
"           ..XX**XX..                                                                                                   ",
"           ..XX**XX..                                                                          ..                       ",
"             ..XX..                                     ++++++++                               ..                       ",
"             ..XX..                                     ++++++++                             ..XX..                     ",
"               ..                                       ++++++++                             ..XX..                     ",
"               ..                                       ++++++++                           ..XX**XX..                   ",
"                                                        ++++++++                           ..XX**XX..                   ",
"                                                        ++++++++                             ..XX..                     ",
"                                                        ++++++++                             ..XX..                     ",
"                                                        ++++++++                               ..                       ",
"                                                ++++++++++++++++++++++++                       ..                       ",
"                                                ++++++++++++++++++++++++                                                ",
"                                                ++++++++++++++++++++++++                                                ",
"                                                ++++++++++++++++++++++++                                                ",
"                                                ++++++++++++++++++++++++                                                ",
"                                                ++++++++++++++++++++++++                                                ",
"                                                ++++++++++++++++++++++++                                                ",
"                                                ++++++++++++++++++++++++                                                ",
"                                        OOOOOOOOOOOOOOOOOOOOOOOOOOOOOOOOOOOOOOOO                                        ",
"                                        OOOOOOOOOOOOOOOOOOOOOOOOOOOOOOOOOOOOOOOO                                        ",
"                                        OOOOOOOOOOOOOOOOOOOOOOOOOOOOOOOOOOOOOOOO                                        ",
"                                        OOOOOOOOOOOOOOOOOOOOOOOOOOOOOOOOOOOOOOOO                                        ",
"                                        OOOOOOOOOOOOOOOOOOOOOOOOOOOOOOOOOOOOOOOO                                        ",
"                                        OOOOOOOOOOOOOOOOOOOOOOOOOOOOOOOOOOOOOOOO                                        ",
"                                        OOOOOOOOOOOOOOOOOOOOOOOOOOOOOOOOOOOOOOOO                                        ",
"                                        OOOOOOOOOOOOOOOOOOOOOOOOOOOOOOOOOOOOOOOO                                        ",
"                                        &&&&&&&&&&&&&&&&$$$$$$$$&&&&&&&&%%%%%%%%                                        ",
"                                        &&&&&&&&&&&&&&&&$$$$$$$$&&&&&&&&%%%%%%%%                                        ",
"                                        &&&&&&&&&&&&&&&&$$$$$$$$&&&&&&&&%%%%%%%%                                        ",
"                                        &&&&&&&&&&&&&&&&$$$$$$$$&&&&&&&&%%%%%%%%                                        ",
"                                        &&&&&&&&&&&&&&&&$$$$$$$$&&&&&&&&%%%%%%%%                                        ",
"                                        &&&&&&&&&&&&&&&&$$$$$$$$&&&&&&&&%%%%%%%%                                        ",
"                                        &&&&&&&&&&&&&&&&$$$$$$$$&&&&&&&&%%%%%%%%                                        ",
"                                        &&&&&&&&&&&&&&&&$$$$$$$$&&&&&&&&%%%%%%%%                                        ",
"                                        &&&&&&&&$$$$$$$$########$$$$$$$$%%%%%%%%                                        ",
"                                        &&&&&&&&$$$$$$$$########$$$$$$$$%%%%%%%%                                        ",
"                                        &&&&&&&&$$$$$$$$########$$$$$$$$%%%%%%%%                                        ",
"                                        &&&&&&&&$$$$$$$$########$$$$$$$$%%%%%%%%                                        ",
"                                        &&&&&&&&$$$$$$$$########$$$$$$$$%%%%%%%%                                        ",
"                                        &&&&&&&&$$$$$$$$########$$$$$$$$%%%%%%%%                                        ",
"                                        &&&&&&&&$$$$$$$$########$$$$$$$$%%%%%%%%                                        ",
"                                        &&&&&&&&$$$$$$$$########$$$$$$$$%%%%%%%%                                        ",
"                                        &&&&&&&&&&&&&&&&$$$$$$$$%%%%%%%%$$$$$$$$                                        ",
"                                  .     &&&&&&&&&&&&&&&&$$$$$$$$%%%%%%%%$$$$$$$$                                        ",
"                                        &&&&&&&&&&&&&&&&$$$$$$$$%%%%%%%%$$$$$$$$                                        ",
"                                        &&&&&&&&&&&&&&&&$$$$$$$$%%%%%%%%$$$$$$$$                                        ",
"                                        &&&&&&&&&&&&&&&&$$$$$$$$%%%%%%%%$$$$$$$$                                        ",
"                      ..                &&&&&&&&&&&&&&&&$$$$$$$$%%%%%%%%$$$$$$$$                                        ",
"                      ..                &&&&&&&&&&&&&&&&$$$$$$$$%%%%%%%%$$$$$$$$                                        ",
"                    ..XX..              &&&&&&&&&&&&&&&&$$$$$$$$%%%%%%%%$$$$$$$$                                        ",
"                    ..XX..              &&&&&&&&%%%%%%%%%%%%%%%%$$$$$$$$$$$$$$$$                                        ",
"                  ..XX**XX..            &&&&&&&&%%%%%%%%%%%%%%%%$$$$$$$$$$$$$$$$                                        ",
"                  ..XX**XX..            &&&&&&&&%%%%%%%%%%%%%%%%$$$$$$$$$$$$$$$$                                        ",
"                    ..XX..              &&&&&&&&%%%%%%%%%%%%%%%%$$$$$$$$$$$$$$$$                                        ",
"                    ..XX..              &&&&&&&&%%%%%%%%%%%%%%%%$$$$$$$$$$$$$$$$                                        ",
"                      ..                &&&&&&&&%%%%%%%%%%%%%%%%$$$$$$$$$$$$$$$$                               ..       ",
"                      ..                &&&&&&&&%%%%%%%%%%%%%%%%$$$$$$$$$$$$$$$$                               ..       ",
"                                        &&&&&&&&%%%%%%%%%%%%%%%%$$$$$$$$$$$$$$$$                             ..XX..     ",
"                                OOOOOOOO%%%%%%%%%%%%%%%%$$$$$$$$$$$$$$$$$$$$$$$$OOOOOOOO                     ..XX..     ",
"                                OOOOOOOO%%%%%%%%%%%%%%%%$$$$$$$$$$$$$$$$$$$$$$$$OOOOOOOO                   ..XX**XX..   ",
"                                OOOOOOOO%%%%%%%%%%%%%%%%$$$$$$$$$$$$$$$$$$$$$$$$OOOOOOOO                   ..XX**XX..   ",
"                                OOOOOOOO%%%%%%%%%%%%%%%%$$$$$$$$$$$$$$$$$$$$$$$$OOOOOOOO                     ..XX..     ",
"                                OOOOOOOO%%%%%%%%%%%%%%%%$$$$$$$$$$$$$$$$$$$$$$$$OOOOOOOO                     ..XX..     ",
"                                OOOOOOOO%%%%%%%%%%%%%%%%$$$$$$$$$$$$$$$$$$$$$$$$OOOOOOOO                       ..       ",
"                                OOOOOOOO%%%%%%%%%%%%%%%%$$$$$$$$$$$$$$$$$$$$$$$$OOOOOOOO                       ..       ",
"                                OOOOOOOO%%%%%%%%%%%%%%%%$$$$$$$$$$$$$$$$$$$$$$$$OOOOOOOO                                ",
"                        ++++++++OOOOOOOOOOOOOOOO++++++++++++++++++++++++OOOOOOOOOOOOOOOO++++++++                        ",
"                        ++++++++OOOOOOOOOOOOOOOO++++++++++++++++++++++++OOOOOOOOOOOOOOOO++++++++                        ",
"                        ++++++++OOOOOOOOOOOOOOOO++++++++++++++++++++++++OOOOOOOOOOOOOOOO++++++++                        ",
"                        ++++++++OOOOOOOOOOOOOOOO++++++++++++++++++++++++OOOOOOOOOOOOOOOO++++++++                        ",
"                        ++++++++OOOOOOOOOOOOOOOO++++++++++++++++++++++++OOOOOOOOOOOOOOOO++++++++                        ",
"                        ++++++++OOOOOOOOOOOOOOOO++++++++++++++++++++++++OOOOOOOOOOOOOOOO++++++++                        ",
"                        ++++++++OOOOOOOOOOOOOOOO++++++++++++++++++++++++OOOOOOOOOOOOOOOO++++++++                        ",
"                        ++++++++OOOOOOOOOOOOOOOO++++++++++++++++++++++++OOOOOOOOOOOOOOOO++++++++                        ",
"                        OOOOOOOOOOOOOOOO        @@@@@@@@oooooooo@@@@@@@@        OOOOOOOOOOOOOOOO                        ",
"                        OOOOOOOOOOOOOOOO        @@@@@@@@oooooooo@@@@@@@@        OOOOOOOOOOOOOOOO                        ",
"                        OOOOOOOOOOOOOOOO        @@@@@@@@oooooooo@@@@@@@@        OOOOOOOOOOOOOOOO                        ",
"                        OOOOOOOOOOOOOOOO        @@@@@@@@oooooooo@@@@@@@@        OOOOOOOOOOOOOOOO                        ",
"                        OOOOOOOOOOOOOOOO        @@@@@@@@oooooooo@@@@@@@@        OOOOOOOOOOOOOOOO                        ",
"                        OOOOOOOOOOOOOOOO        @@@@@@@@oooooooo@@@@@@@@        OOOOOOOOOOOOOOOO                        ",
"                        OOOOOOOOOOOOOOOO        @@@@@@@@oooooooo@@@@@@@@        OOOOOOOOOOOOOOOO                        ",
"                        OOOOOOOOOOOOOOOO        @@@@@@@@oooooooo@@@@@@@@        OOOOOOOOOOOOOOOO                        ",
"                        ++++++++                        @@@@@@@@                        ++++++++                        ",
"                        ++++++++                        @@@@@@@@                        ++++++++                        ",
"                        ++++++++                        @@@@@@@@                        ++++++++                        ",
"                        ++++++++                        @@@@@@@@                        ++++++++                        ",
"                        ++++++++                        @@@@@@@@                        ++++++++                        ",
"                        ++++++++                        @@@@@@@@                        ++++++++                        ",
"                        ++++++++                        @@@@@@@@                        ++++++++                        ",
"                        ++++++++                        @@@@@@@@                        ++++++++                        ",
"                                                                                                                        ",
"                                                                                                                        ",
"                                                                                                                        ",
"                                                                                    .                                   ",
"                                                                                     .                                  ",
"                                                                       ..                                               ",
"                                                                       ..                                               ",
"                                                                     ..XX..                                             ",
"                                                                     ..XX..                                             ",
"                                                                   ..XX**XX..                                           ",
"                                                                   ..XX**XX..                                           ",
"                                                                     ..XX..                                             ",
"                                                                     ..XX..                                             ",
"                                                                       ..                                               ",
"                                                                       ..                                               ",
"                                                                                                                        "
};
