/* XPM */
static char *d3725675377c45ffa90b96fabe01b4a0sLSIgCTSqqBbIlAn[] = {
/* columns rows colors chars-per-pixel */
"120 120 12 1 ",
"  c #010622",
". c #030826",
"X c #040C37",
"o c #050F46",
"O c #350D4E",
"+ c #EB9607",
"@ c #F3F942",
"# c #7E1285",
"$ c #FF1A8C",
"% c #66FFE3",
"& c #FFE491",
"* c white",
/* pixels */
"........................................................................................................................",
"........................................................................................................................",
".......................................................................................XX...............................",
".......................................................................................XX...............................",
".....................................................................................XXooXX.............................",
".....................................................................................XXooXX.............................",
"..............XX...................................................................XXoo**ooXX...........................",
"..............XX...................................................................XXoo**ooXX...........................",
"............XXooXX...................................................................XXooXX.............................",
"............XXooXX...................................................................XXooXX.............................",
"..........XXoo**ooXX...................................................................XX...............................",
"..........XXoo**ooXX...................................................................XX...............................",
"............XXooXX......................................................................................................",
"............XXooXX......................................................................................................",
"..............XX........................................................................................................",
"..............XX........................................................................................................",
"................................################OOOOOOOOOOOOOOOOOOOOOOOOOOOOOOOO########................................",
"................................################OOOOOOOOOOOOOOOOOOOOOOOOOOOOOOOO########................................",
"................................################OOOOOOOOOOOOOOOOOOOOOOOOOOOOOOOO########................................",
"................................################OOOOOOOOOOOOOOOOOOOOOOOOOOOOOOOO########................................",
"................................################OOOOOOOOOOOOOOOOOOOOOOOOOOOOOOOO########................................",
"................................################OOOOOOOOOOOOOOOOOOOOOOOOOOOOOOOO########................................",
"................................################OOOOOOOOOOOOOOOOOOOOOOOOOOOOOOOO########................................",
"................................################OOOOOOOOOOOOOOOOOOOOOOOOOOOOOOOO########................................",
"........................########OOOOOOOO$$$$$$$$OOOOOOOOOOOOOOOO%%%%%%%%OOOOOOOOOOOOOOOOOOOOOOOO........................",
"........................########OOOOOOOO$$$$$$$$OOOOOOOOOOOOOOOO%%%%%%%%OOOOOOOOOOOOOOOOOOOOOOOO........................",
"........................########OOOOOOOO$$$$$$$$OOOOOOOOOOOOOOOO%%%%%%%%OOOOOOOOOOOOOOOOOOOOOOOO........................",
"........................########OOOOOOOO$$$$$$$$OOOOOOOOOOOOOOOO%%%%%%%%OOOOOOOOOOOOOOOOOOOOOOOO........................",
"........................########OOOOOOOO$$$$$$$$OOOOOOOOOOOOOOOO%%%%%%%%OOOOOOOOOOOOOOOOOOOOOOOO........................",
"........................########OOOOOOOO$$$$$$$$OOOOOOOOOOOOOOOO%%%%%%%%OOOOOOOOOOOOOOOOOOOOOOOO........................",
"........................########OOOOOOOO$$$$$$$$OOOOOOOOOOOOOOOO%%%%%%%%OOOOOOOOOOOOOOOOOOOOOOOO....................  ..",
"........................########OOOOOOOO$$$$$$$$OOOOOOOOOOOOOOOO%%%%%%%%OOOOOOOOOOOOOOOOOOOOOOOO...................... .",
"................########OOOOOOOOOOOOOOOOOOOOOOOOOOOOOOOOOOOOOOOOOOOOOOOOOOOOOOOO@@@@@@@@OOOOOOOOOOOOOOOO.............. .",
"................########OOOOOOOOOOOOOOOOOOOOOOOOOOOOOOOOOOOOOOOOOOOOOOOOOOOOOOOO@@@@@@@@OOOOOOOOOOOOOOOO............... ",
"................########OOOOOOOOOOOOOOOOOOOOOOOOOOOOOOOOOOOOOOOOOOOOOOOOOOOOOOOO@@@@@@@@OOOOOOOOOOOOOOOO............... ",
"................########OOOOOOOOOOOOOOOOOOOOOOOOOOOOOOOOOOOOOOOOOOOOOOOOOOOOOOOO@@@@@@@@OOOOOOOOOOOOOOOO.......XX...... ",
"................########OOOOOOOOOOOOOOOOOOOOOOOOOOOOOOOOOOOOOOOOOOOOOOOOOOOOOOOO@@@@@@@@OOOOOOOOOOOOOOOO...... XX.......",
"................########OOOOOOOOOOOOOOOOOOOOOOOOOOOOOOOOOOOOOOOOOOOOOOOOOOOOOOOO@@@@@@@@OOOOOOOOOOOOOOOO.....XXooXX.....",
"................########OOOOOOOOOOOOOOOOOOOOOOOOOOOOOOOOOOOOOOOOOOOOOOOOOOOOOOOO@@@@@@@@OOOOOOOOOOOOOOOO.....XXooXX.....",
"................########OOOOOOOOOOOOOOOOOOOOOOOOOOOOOOOOOOOOOOOOOOOOOOOOOOOOOOOO@@@@@@@@OOOOOOOOOOOOOOOO...XXoo**ooXX.. ",
"................########%%%%%%%%OOOOOOOOOOOOOOOO########################OOOOOOOOOOOOOOOOOOOOOOOOOOOOOOOO...XXoo**ooXX.. ",
"................########%%%%%%%%OOOOOOOOOOOOOOOO########################OOOOOOOOOOOOOOOOOOOOOOOOOOOOOOOO.....XXooXX..   ",
"................########%%%%%%%%OOOOOOOOOOOOOOOO########################OOOOOOOOOOOOOOOOOOOOOOOOOOOOOOOO.....XXooXX..   ",
"................########%%%%%%%%OOOOOOOOOOOOOOOO########################OOOOOOOOOOOOOOOOOOOOOOOOOOOOOOOO...... XX       ",
"................########%%%%%%%%OOOOOOOOOOOOOOOO########################OOOOOOOOOOOOOOOOOOOOOOOOOOOOOOOO.......XX..     ",
"................########%%%%%%%%OOOOOOOOOOOOOOOO########################OOOOOOOOOOOOOOOOOOOOOOOOOOOOOOOO....... .....   ",
"................########%%%%%%%%OOOOOOOOOOOOOOOO########################OOOOOOOOOOOOOOOOOOOOOOOOOOOOOOOO............... ",
"................########%%%%%%%%OOOOOOOOOOOOOOOO########################OOOOOOOOOOOOOOOOOOOOOOOOOOOOOOOO................",
"................OOOOOOOOOOOOOOOOOOOOOOOO########........................########OOOOOOOO$$$$$$$$OOOOOOOO................",
"................OOOOOOOOOOOOOOOOOOOOOOOO########........................########OOOOOOOO$$$$$$$$OOOOOOOO................",
"................OOOOOOOOOOOOOOOOOOOOOOOO########........................########OOOOOOOO$$$$$$$$OOOOOOOO................",
"................OOOOOOOOOOOOOOOOOOOOOOOO########........................########OOOOOOOO$$$$$$$$OOOOOOOO................",
"................OOOOOOOOOOOOOOOOOOOOOOOO########........................########OOOOOOOO$$$$$$$$OOOOOOOO................",
"................OOOOOOOOOOOOOOOOOOOOOOOO########........................########OOOOOOOO$$$$$$$$OOOOOOOO................",
"................OOOOOOOOOOOOOOOOOOOOOOOO########........................########OOOOOOOO$$$$$$$$OOOOOOOO................",
"................OOOOOOOOOOOOOOOOOOOOOOOO########........................########OOOOOOOO$$$$$$$$OOOOOOOO................",
"................OOOOOOOO$$$$$$$$OOOOOOOO########........................########OOOOOOOOOOOOOOOOOOOOOOOO................",
"................OOOOOOOO$$$$$$$$OOOOOOOO########........................########OOOOOOOOOOOOOOOOOOOOOOOO................",
"................OOOOOOOO$$$$$$$$OOOOOOOO########........................########OOOOOOOOOOOOOOOOOOOOOOOO................",
"................OOOOOOOO$$$$$$$$OOOOOOOO########........................########OOOOOOOOOOOOOOOOOOOOOOOO................",
"................OOOOOOOO$$$$$$$$OOOOOOOO########........................########OOOOOOOOOOOOOOOOOOOOOOOO................",
"................OOOOOOOO$$$$$$$$OOOOOOOO########........................########OOOOOOOOOOOOOOOOOOOOOOOO................",
"................OOOOOOOO$$$$$$$$OOOOOOOO########........................########OOOOOOOOOOOOOOOOOOOOOOOO................",
"................OOOOOOOO$$$$$$$$OOOOOOOO########........................########OOOOOOOOOOOOOOOOOOOOOOOO................",
"................OOOOOOOOOOOOOOOOOOOOOOOOOOOOOOOO........................OOOOOOOOOOOOOOOOOOOOOOOO&&&&&&&&................",
"................OOOOOOOOOOOOOOOOOOOOOOOOOOOOOOOO........................OOOOOOOOOOOOOOOOOOOOOOOO&&&&&&&&................",
"................OOOOOOOOOOOOOOOOOOOOOOOOOOOOOOOO........................OOOOOOOOOOOOOOOOOOOOOOOO&&&&&&&&................",
"................OOOOOOOOOOOOOOOOOOOOOOOOOOOOOOOO........................OOOOOOOOOOOOOOOOOOOOOOOO&&&&&&&&................",
"................OOOOOOOOOOOOOOOOOOOOOOOOOOOOOOOO........................OOOOOOOOOOOOOOOOOOOOOOOO&&&&&&&&................",
"................OOOOOOOOOOOOOOOOOOOOOOOOOOOOOOOO........................OOOOOOOOOOOOOOOOOOOOOOOO&&&&&&&&................",
"................OOOOOOOOOOOOOOOOOOOOOOOOOOOOOOOO........................OOOOOOOOOOOOOOOOOOOOOOOO&&&&&&&&................",
"................OOOOOOOOOOOOOOOOOOOOOOOOOOOOOOOO........................OOOOOOOOOOOOOOOOOOOOOOOO&&&&&&&&................",
"................&&&&&&&&OOOOOOOOOOOOOOOOOOOOOOOOOOOOOOOO&&&&&&&&OOOOOOOOOOOOOOOO@@@@@@@@OOOOOOOO&&&&&&&&................",
"................&&&&&&&&OOOOOOOOOOOOOOOOOOOOOOOOOOOOOOOO&&&&&&&&OOOOOOOOOOOOOOOO@@@@@@@@OOOOOOOO&&&&&&&&................",
"................&&&&&&&&OOOOOOOOOOOOOOOOOOOOOOOOOOOOOOOO&&&&&&&&OOOOOOOOOOOOOOOO@@@@@@@@OOOOOOOO&&&&&&&&................",
"................&&&&&&&&OOOOOOOOOOOOOOOOOOOOOOOOOOOOOOOO&&&&&&&&OOOOOOOOOOOOOOOO@@@@@@@@OOOOOOOO&&&&&&&&................",
"................&&&&&&&&OOOOOOOOOOOOOOOOOOOOOOOOOOOOOOOO&&&&&&&&OOOOOOOOOOOOOOOO@@@@@@@@OOOOOOOO&&&&&&&&................",
"................&&&&&&&&OOOOOOOOOOOOOOOOOOOOOOOOOOOOOOOO&&&&&&&&OOOOOOOOOOOOOOOO@@@@@@@@OOOOOOOO&&&&&&&&................",
"................&&&&&&&&OOOOOOOOOOOOOOOOOOOOOOOOOOOOOOOO&&&&&&&&OOOOOOOOOOOOOOOO@@@@@@@@OOOOOOOO&&&&&&&&................",
"................&&&&&&&&OOOOOOOOOOOOOOOOOOOOOOOOOOOOOOOO&&&&&&&&OOOOOOOOOOOOOOOO@@@@@@@@OOOOOOOO&&&&&&&&................",
"................++++++++&&&&&&&&&&&&&&&&OOOOOOOO&&&&&&&&&&&&&&&&&&&&&&&&OOOOOOOOOOOOOOOO&&&&&&&&++++++++................",
"................++++++++&&&&&&&&&&&&&&&&OOOOOOOO&&&&&&&&&&&&&&&&&&&&&&&&OOOOOOOOOOOOOOOO&&&&&&&&++++++++................",
"................++++++++&&&&&&&&&&&&&&&&OOOOOOOO&&&&&&&&&&&&&&&&&&&&&&&&OOOOOOOOOOOOOOOO&&&&&&&&++++++++................",
"................++++++++&&&&&&&&&&&&&&&&OOOOOOOO&&&&&&&&&&&&&&&&&&&&&&&&OOOOOOOOOOOOOOOO&&&&&&&&++++++++................",
"................++++++++&&&&&&&&&&&&&&&&OOOOOOOO&&&&&&&&&&&&&&&&&&&&&&&&OOOOOOOOOOOOOOOO&&&&&&&&++++++++................",
"................++++++++&&&&&&&&&&&&&&&&OOOOOOOO&&&&&&&&&&&&&&&&&&&&&&&&OOOOOOOOOOOOOOOO&&&&&&&&++++++++................",
"................++++++++&&&&&&&&&&&&&&&&OOOOOOOO&&&&&&&&&&&&&&&&&&&&&&&&OOOOOOOOOOOOOOOO&&&&&&&&++++++++................",
"................++++++++&&&&&&&&&&&&&&&&OOOOOOOO&&&&&&&&&&&&&&&&&&&&&&&&OOOOOOOOOOOOOOOO&&&&&&&&++++++++................",
"........................++++++++&&&&&&&&&&&&&&&&&&&&&&&&&&&&&&&&&&&&&&&&&&&&&&&&&&&&&&&&++++++++........................",
"........................++++++++&&&&&&&&&&&&&&&&&&&&&&&&&&&&&&&&&&&&&&&&&&&&&&&&&&&&&&&&++++++++........................",
"........................++++++++&&&&&&&&&&&&&&&&&&&&&&&&&&&&&&&&&&&&&&&&&&&&&&&&&&&&&&&&++++++++........................",
"........................++++++++&&&&&&&&&&&&&&&&&&&&&&&&&&&&&&&&&&&&&&&&&&&&&&&&&&&&&&&&++++++++........................",
"........................++++++++&&&&&&&&&&&&&&&&&&&&&&&&&&&&&&&&&&&&&&&&&&&&&&&&&&&&&&&&++++++++........................",
"........................++++++++&&&&&&&&&&&&&&&&&&&&&&&&&&&&&&&&&&&&&&&&&&&&&&&&&&&&&&&&++++++++........................",
"........................++++++++&&&&&&&&&&&&&&&&&&&&&&&&&&&&&&&&&&&&&&&&&&&&&&&&&&&&&&&&++++++++........................",
"........XX..............++++++++&&&&&&&&&&&&&&&&&&&&&&&&&&&&&&&&&&&&&&&&&&&&&&&&&&&&&&&&++++++++........................",
"........XX......................++++++++++++++++&&&&&&&&&&&&&&&&&&&&&&&&&&&&&&&&++++++++................................",
"......XXooXX....................++++++++++++++++&&&&&&&&&&&&&&&&&&&&&&&&&&&&&&&&++++++++................................",
"......XXooXX....................++++++++++++++++&&&&&&&&&&&&&&&&&&&&&&&&&&&&&&&&++++++++................................",
"....XXoo**ooXX..................++++++++++++++++&&&&&&&&&&&&&&&&&&&&&&&&&&&&&&&&++++++++................................",
"....XXoo**ooXX..................++++++++++++++++&&&&&&&&&&&&&&&&&&&&&&&&&&&&&&&&++++++++................................",
"......XXooXX....................++++++++++++++++&&&&&&&&&&&&&&&&&&&&&&&&&&&&&&&&++++++++................................",
"......XXooXX....................++++++++++++++++&&&&&&&&&&&&&&&&&&&&&&&&&&&&&&&&++++++++................................",
"........XX......................++++++++++++++++&&&&&&&&&&&&&&&&&&&&&&&&&&&&&&&&++++++++................................",
"........XX..............................................................................................................",
"........................................................................................................................",
"........................................................................................................................",
"........................................................................................................................",
".............................................................XX.........................................................",
".............................................................XX.........................................................",
"...........................................................XXooXX.......................................................",
"...........................................................XXooXX.......................................................",
".........................................................XXoo**ooXX.....................................................",
".........................................................XXoo**ooXX.....................................................",
"...........................................................XXooXX.......................................................",
"...........................................................XXooXX.......................................................",
".............................................................XX.........................................................",
".............................................................XX.........................................................",
"........................................................................................................................",
"........................................................................................................................"
};
